<?xml version="1.0" encoding="iso-8859-1"?>
<!-- Generator: Adobe Illustrator 22.1.0, SVG Export Plug-In . SVG Version: 6.00 Build 0)  -->
<svg xmlns="http://www.w3.org/2000/svg" xmlns:xlink="http://www.w3.org/1999/xlink" version="1.1" id="Layer_1_1_" x="0px" y="0px" viewBox="0 0 64 64" style="enable-background:new 0 0 64 64;" xml:space="preserve" width="512" height="512">
<g>
	<g>
		<path style="fill:#F0BC5E;" d="M22.789,42l3.241-1.137c3.285-1.232,6.314-3.059,8.936-5.389l0,0    c3.31-2.942,5.89-6.615,7.534-10.727L44,21l-5-1l0,0c-3.249,5.198-8.068,9.227-13.759,11.504L24,32L22.789,42z"/>
	</g>
	<g>
		<rect x="1" y="61" width="2" height="2"/>
		<rect x="61" y="61" width="2" height="2"/>
		<path d="M58,56.283c0-2.379-1.276-4.602-3.332-5.801l-0.866-0.505C55.583,49.857,57,48.384,57,46.573v-0.146    C57,44.538,55.463,43,53.573,43c-0.529,0-1.06,0.125-1.533,0.362l-0.915,0.458l-2.891-2.313c-0.919-0.735-1.635-1.7-2.071-2.791    l-0.676-1.689C45.164,36.218,45,35.366,45,34.495v-0.714l4.168-1.042l-1.716-8.579c-0.363-1.817-1.691-3.276-3.467-3.809    L37,18.256v-2.366c1.235-1.263,2-2.988,2-4.889V8c0-3.86-3.141-7-7-7s-7,3.14-7,7v3c0,1.902,0.765,3.627,2,4.889v2.366    l-6.985,2.096c-1.775,0.532-3.104,1.992-3.467,3.809l-1.716,8.579L19,33.781v0.714c0,0.871-0.164,1.723-0.487,2.531l-0.676,1.689    c-0.437,1.091-1.152,2.056-2.071,2.791l-2.891,2.313l-0.915-0.458C11.486,43.125,10.956,43,10.427,43C8.537,43,7,44.538,7,46.427    v0.146c0,1.811,1.417,3.284,3.198,3.404l-0.866,0.505C7.276,51.681,6,53.904,6,56.283C6,58.12,6.742,59.786,7.942,61H5v2h7.717    h15.312h7.941h15.312H59v-2h-2.942C57.258,59.786,58,58.12,58,56.283z M39.345,54.241l-1.982-1.189L38,52.414v-1.293    C38,50.503,38.503,50,39.121,50c0.822,0,1.626-0.333,2.207-0.914l1.758-1.758C43.295,47.12,43.584,47,43.879,47    C44.497,47,45,47.503,45,48.121c0,0.3-0.116,0.581-0.328,0.793L39.345,54.241z M19.328,48.914C19.116,48.702,19,48.421,19,48.121    C19,47.503,19.503,47,20.121,47c0.295,0,0.584,0.12,0.793,0.328l1.758,1.758C23.253,49.667,24.057,50,24.879,50    C25.497,50,26,50.503,26,51.121v1.293L27.586,54L26,55.586L19.328,48.914z M29,52.586l-1-1v-0.465C28,49.4,26.6,48,24.879,48    c-0.295,0-0.584-0.12-0.793-0.328l-1.758-1.758c-0.231-0.231-0.504-0.411-0.793-0.558c0.425-0.288,0.807-0.629,1.131-1.025    C24.273,45.221,27.986,47,32,47c4.014,0,7.727-1.779,9.334-2.668c0.324,0.396,0.706,0.736,1.131,1.024    c-0.289,0.147-0.562,0.327-0.793,0.558l-1.758,1.758C39.705,47.88,39.416,48,39.121,48C37.4,48,36,49.4,36,51.121v0.465    l-0.405,0.405l-3.75-2.25L29,52.586z M43.63,37.769l0.676,1.689c0.565,1.412,1.491,2.66,2.679,3.609l3.891,3.113l2.06-1.03    C53.132,45.052,53.353,45,53.573,45C54.36,45,55,45.64,55,46.427v0.146C55,47.36,54.36,48,53.573,48h-2.314l-7.437-4.131    c-0.661-0.367-1.181-0.957-1.462-1.66C41.458,39.951,41,37.574,41,35.144v-0.363l2-0.5v0.214    C43,35.622,43.212,36.723,43.63,37.769z M35,18.558C34.349,19.117,33.093,20,32,20s-2.349-0.883-3-1.442v-1.243    C29.911,17.749,30.926,18,32,18s2.089-0.251,3-0.685V18.558z M27,8c0-2.757,2.243-5,5-5s5,2.243,5,5v3c0,2.757-2.243,5-5,5    s-5-2.243-5-5V8z M18.509,24.553c0.218-1.09,1.016-1.966,2.08-2.285l7.158-2.148C28.531,20.789,30.195,22,32,22    s3.469-1.211,4.253-1.88l7.158,2.148c1.064,0.319,1.862,1.195,2.08,2.285l1.341,6.708L41,32.719v-3.124h-2v5.549    c0,2.552,0.472,5.047,1.374,7.431C38.947,43.363,35.553,45,32,45c-3.541,0-6.943-1.639-8.373-2.426    C24.528,40.191,25,37.696,25,35.144V27h-2v5.719l-5.832-1.458L18.509,24.553z M9,46.573v-0.146C9,45.64,9.64,45,10.427,45    c0.221,0,0.441,0.052,0.639,0.151l2.06,1.03l3.891-3.113c1.188-0.95,2.113-2.198,2.679-3.609l0.676-1.69    c0.418-1.045,0.63-2.147,0.63-3.274v-0.214l2,0.5v0.363c0,2.43-0.458,4.807-1.359,7.064c-0.282,0.704-0.802,1.293-1.463,1.661    L12.741,48h-2.314C9.64,48,9,47.36,9,46.573z M12.717,61C10.116,61,8,58.884,8,56.283c0-1.671,0.896-3.232,2.34-4.074l6.679-3.896    c0.046,0.761,0.352,1.471,0.895,2.015l8.864,8.864c0.677,0.677,1.419,1.26,2.206,1.764C28.667,60.984,28.349,61,28.029,61H12.717z     M35.971,61c-2.938,0-5.701-1.144-7.778-3.222L27.414,57l4.741-4.741l6.205,3.723l3.125,1.875l1.029-1.715l-1.402-0.841    l4.973-4.973c0.544-0.543,0.849-1.254,0.895-2.015l6.679,3.896c1.443,0.842,2.34,2.403,2.34,4.074C56,58.884,53.884,61,51.283,61    H35.971z"/>
	</g>
</g>
</svg>
