<?xml version="1.0" encoding="iso-8859-1"?>
<!-- Generator: Adobe Illustrator 22.1.0, SVG Export Plug-In . SVG Version: 6.00 Build 0)  -->
<svg xmlns="http://www.w3.org/2000/svg" xmlns:xlink="http://www.w3.org/1999/xlink" version="1.1" id="Layer_1_1_" x="0px" y="0px" viewBox="0 0 64 64" style="enable-background:new 0 0 64 64;" xml:space="preserve" width="512" height="512">
<g>
	<g>
		<circle style="fill:#F0BC5E;" cx="43" cy="18" r="13"/>
	</g>
	<g>
		<g>
			<path style="fill:#F0BC5E;" d="M11,63C5.486,63,1,58.514,1,53c0-3.161,1.485-6.112,4-7.999V7c0-3.309,2.691-6,6-6s6,2.691,6,6     v38.001c2.515,1.887,4,4.838,4,7.999C21,58.514,16.514,63,11,63z"/>
		</g>
	</g>
	<g>
		<path d="M8.6,49.799l-1.201-1.599C6.57,48.823,5.914,49.653,5.5,50.6L7.333,51.4C7.608,50.769,8.047,50.215,8.6,49.799z"/>
		<path d="M7,53H5c0,3.309,2.691,6,6,6v-2C8.794,57,7,55.206,7,53z"/>
		<rect x="5" y="9" width="7" height="2"/>
		<rect x="5" y="13" width="4" height="2"/>
		<rect x="5" y="17" width="7" height="2"/>
		<rect x="5" y="21" width="4" height="2"/>
		<rect x="5" y="25" width="7" height="2"/>
		<rect x="5" y="29" width="4" height="2"/>
		<rect x="5" y="33" width="7" height="2"/>
		<rect x="5" y="37" width="4" height="2"/>
		<rect x="5" y="41" width="7" height="2"/>
		<path d="M43,35c9.374,0,17-7.626,17-17S52.374,1,43,1S26,8.626,26,18S33.626,35,43,35z M43,3c8.271,0,15,6.729,15,15    s-6.729,15-15,15s-15-6.729-15-15S34.729,3,43,3z"/>
		<path d="M39,13c1.654,0,3-1.346,3-3s-1.346-3-3-3s-3,1.346-3,3S37.346,13,39,13z M39,9c0.551,0,1,0.449,1,1s-0.449,1-1,1    s-1-0.449-1-1S38.449,9,39,9z"/>
		<path d="M39,20c0,3.86,3.14,7,7,7h3v-2h-3c-2.757,0-5-2.243-5-5s2.243-5,5-5h3v-2h-3C42.14,13,39,16.14,39,20z"/>
		<path d="M57,51c-0.43,0-0.849,0.048-1.254,0.134C54.928,48.138,52.214,46,49,46c-0.743,0-1.463,0.122-2.156,0.347    C45.167,43.172,41.834,41,38,41c-5.514,0-10,4.486-10,10c0,0.03,0.005,0.059,0.005,0.09C25.169,51.566,23,54.031,23,57    c0,3.309,2.691,6,6,6h28c3.309,0,6-2.691,6-6S60.309,51,57,51z M57,61H29c-2.206,0-4-1.794-4-4s1.794-4,4-4s4,1.794,4,4h2    c0-2.965-2.164-5.429-4.995-5.909C30.005,51.06,30,51.031,30,51c0-4.411,3.589-8,8-8s8,3.589,8,8h2    c0-0.97-0.146-1.905-0.404-2.792C48.049,48.075,48.517,48,49,48c2.376,0,4.354,1.641,4.858,3.898C52.147,52.956,51,54.844,51,57h2    c0-2.206,1.794-4,4-4s4,1.794,4,4S59.206,61,57,61z"/>
		<rect x="37" y="53" width="2" height="2"/>
		<rect x="42" y="53" width="2" height="2"/>
		<rect x="47" y="53" width="2" height="2"/>
	</g>
</g>
</svg>
