<?xml version="1.0" encoding="iso-8859-1"?>
<!-- Generator: Adobe Illustrator 22.1.0, SVG Export Plug-In . SVG Version: 6.00 Build 0)  -->
<svg xmlns="http://www.w3.org/2000/svg" xmlns:xlink="http://www.w3.org/1999/xlink" version="1.1" id="Layer_1_1_" x="0px" y="0px" viewBox="0 0 64 64" style="enable-background:new 0 0 64 64;" xml:space="preserve" width="512" height="512">
<g>
	<g>
		<path style="fill:#F0BC5E;" d="M20,57h-1.141c-0.446-1.722-1.997-3-3.859-3s-3.413,1.278-3.859,3H10c-1.657,0-3,1.343-3,3    s1.343,3,3,3h10c1.657,0,3-1.343,3-3S21.657,57,20,57z"/>
	</g>
	<g>
		<path style="fill:#F0BC5E;" d="M54,6h-1.141C52.413,4.278,50.862,3,49,3s-3.413,1.278-3.859,3H44c-1.657,0-3,1.343-3,3    s1.343,3,3,3h10c1.657,0,3-1.343,3-3S55.657,6,54,6z"/>
	</g>
	<g>
		<path d="M55,31c-0.139,0-0.279,0.022-0.419,0.03C53.281,26.405,49.035,23,44,23c-2.142,0-4.23,0.63-6.012,1.796    C35.884,19.553,30.731,16,25,16c-7.208,0-13.182,5.465-13.91,12.556c-2.702,1.06-4.69,3.543-5.033,6.526    C3.196,35.536,1,38.013,1,41c0,3.309,2.691,6,6,6h48c4.411,0,8-3.589,8-8S59.411,31,55,31z M55,45H7c-2.206,0-4-1.794-4-4    s1.794-4,4-4c0.849,0,1.659,0.262,2.342,0.757l1.174-1.619c-0.733-0.531-1.564-0.875-2.441-1.033C8.509,32.22,10.996,30,14,30    c3.309,0,6,2.691,6,6h2c0-4.411-3.589-8-8-8c-0.283,0-0.561,0.016-0.837,0.044C14.1,22.318,19.066,18,25,18    c5.322,0,10.062,3.576,11.528,8.695l0.43,1.501l1.184-1.018C39.774,25.773,41.855,25,44,25c4.962,0,9,4.038,9,9    c0,1.01-0.166,2.001-0.493,2.946l1.89,0.654C54.797,36.444,55,35.233,55,34c0-0.336-0.021-0.668-0.05-0.996    C54.966,33.003,54.983,33,55,33c3.309,0,6,2.691,6,6S58.309,45,55,45z"/>
		<path d="M20.198,55.004C19.135,53.159,17.164,52,15,52s-4.135,1.159-5.198,3.004C7.476,55.095,5.552,56.783,5.101,59H1v2h6v-1    c0-1.654,1.346-3,3-3c0.083,0,0.164,0.012,0.283,0.027l0.745,0.09l0.295-0.689C11.955,54.953,13.398,54,15,54    s3.045,0.953,3.677,2.428l0.333,0.686l0.746-0.092C19.836,57.012,19.917,57,20,57c1.654,0,3,1.346,3,3v1h6v-2h-4.101    C24.448,56.783,22.524,55.095,20.198,55.004z"/>
		<path d="M58.899,8c-0.452-2.217-2.375-3.905-4.702-3.996C53.135,2.159,51.164,1,49,1s-4.135,1.159-5.198,3.004    C41.476,4.095,39.552,5.783,39.101,8H35v2h6V9c0-1.654,1.346-3,3-3c0.083,0,0.164,0.012,0.283,0.027l0.745,0.09l0.295-0.689    C45.955,3.953,47.398,3,49,3s3.045,0.953,3.677,2.428l0.333,0.686l0.746-0.092C53.836,6.012,53.917,6,54,6c1.654,0,3,1.346,3,3v1    h6V8H58.899z"/>
	</g>
</g>
</svg>
