<?xml version="1.0" encoding="iso-8859-1"?>
<!-- Generator: Adobe Illustrator 22.1.0, SVG Export Plug-In . SVG Version: 6.00 Build 0)  -->
<svg xmlns="http://www.w3.org/2000/svg" xmlns:xlink="http://www.w3.org/1999/xlink" version="1.1" id="Layer_1_1_" x="0px" y="0px" viewBox="0 0 64 64" style="enable-background:new 0 0 64 64;" xml:space="preserve" width="512" height="512">
<g>
	<g>
		<circle style="fill:#F0BC5E;" cx="56" cy="7" r="5"/>
	</g>
	<g>
		<circle style="fill:#F0BC5E;" cx="8" cy="18" r="5"/>
	</g>
	<g>
		<circle style="fill:#F0BC5E;" cx="56" cy="43" r="5"/>
	</g>
	<g>
		<path style="fill:#F0BC5E;" d="M18,56.394v-0.722c0-2.429,0.437-4.838,1.29-7.112c1.029-2.743,3.651-4.56,6.581-4.56h0.001    c1.091,0,2.159,0.262,3.128,0.745v-2.264c0-2.299-0.439-4.578-1.293-6.713C27.24,34.6,27,33.354,27,32.096    c0-2.622,1.042-5.137,2.896-6.992l0.524-0.524l0.037-0.021C27.647,24.841,24.826,25,22,25c-0.096,0-0.177-0.003-0.27-0.004    c-0.544,2.559-1.898,4.901-3.901,6.653c-2.451,2.144-3.944,5.179-4.147,8.429l-0.272,4.348c-0.256,4.103-2.56,7.802-6.13,9.842    L6,55c0,0,6,5,15,7C19.126,60.75,18,58.647,18,56.394z"/>
	</g>
	<g>
		<path d="M50.053,49.408l-0.605-0.303C49.3,49.032,49.149,48.968,49,48.898v-4.619l-1-0.333v-2.735c0-0.595,0.174-1.17,0.504-1.664    l2.43-3.645C51.631,34.856,52,33.638,52,32.38c0-0.301-0.021-0.602-0.063-0.898l-0.815-5.706C50.976,24.764,50.094,24,49.071,24    C47.929,24,47,24.929,47,26.071v5.578l-2.927,3.658l-0.659-0.99c-0.611-0.915-1.814-1.234-2.799-0.743    c-1.078,0.539-1.518,1.856-0.979,2.936L41,39.236V43h-1v4h-1.754l-0.299,1.045c-0.159-3.76-0.719-7.49-1.669-11.132    C37.833,36.567,39,35.182,39,33.525V32h0.465C40.862,32,42,30.863,42,29.465c0-0.502-0.147-0.988-0.426-1.406l-0.078-0.117    c-0.818-1.228-1.227-2.407-1.347-3.786l0.179-0.03C41.297,23.965,42,23.135,42,22.153V20c0-0.737-0.405-1.375-1-1.722v-0.577    c0-1.969-0.677-3.9-1.906-5.436C37.433,10.19,34.956,9,32.299,9c-0.496,0-0.987,0.039-1.473,0.104C30.928,8.751,31,8.385,31,8    c0-2.206-1.794-4-4-4s-4,1.794-4,4c0,1.548,0.893,2.879,2.183,3.543c-0.777,0.631-1.483,1.356-2.077,2.187l-0.032,0.045    C21.717,15.695,21,17.949,21,20.299v2.159c0,3.233-1.396,6.309-3.829,8.438c-2.633,2.304-4.269,5.628-4.486,9.119l-0.271,4.348    c-0.236,3.779-2.341,7.157-5.628,9.036l-2.532,1.446l1.106,0.922c0.189,0.157,3.613,2.972,9.142,5.232H5v2h54v-2h-9.914    L50.053,49.408z M27,6c1.103,0,2,0.897,2,2s-0.897,2-2,2s-2-0.897-2-2S25.897,6,27,6z M42,47.062V45h0.403    c1.563,0,3.109,0.243,4.597,0.722v2.367C45.385,47.536,43.701,47.189,42,47.062z M41.51,35.363    c0.083-0.042,0.188-0.015,0.24,0.064l2.177,3.266L49,32.351v-6.279c0-0.04,0.034-0.07,0.142-0.011l0.814,5.706    C49.986,31.97,50,32.175,50,32.38c0,0.861-0.253,1.696-0.73,2.413l-2.43,3.644C46.29,39.261,46,40.22,46,41.211v2.186    c-0.986-0.214-1.988-0.338-3-0.373v-4.26l-1.574-3.148C41.38,35.523,41.417,35.41,41.51,35.363z M39.754,49h0.774    c2.547,0,5.098,0.553,7.418,1.605L47.08,61h-6.279c-0.49-2.154-1.447-4.157-2.799-5.868L39.754,49z M19,56.395v-0.722    c0-2.318,0.412-4.593,1.227-6.761C21.104,46.572,23.372,45,25.872,45c1.194,0,2.351,0.35,3.413,1.059    c1.683,1.122,2.866,2.795,3.396,4.69l-7.14-4.59l-1.082,1.683l8.884,5.711c2.679,1.722,4.603,4.394,5.413,7.448H21.334    C19.872,59.92,19,58.224,19,56.395z M34.114,36.7c0.013,0.006,0.028,0.008,0.041,0.013c0.295,1.068,0.557,2.145,0.782,3.228    c-1.995-0.197-3.93-0.936-5.537-2.141l-0.004-0.003c-0.206-0.811-0.447-1.615-0.761-2.4c-0.171-0.427-0.298-0.865-0.4-1.309    L34.114,36.7z M29.886,40.466c1.672,0.888,3.533,1.404,5.426,1.506C35.765,44.715,36,47.492,36,50.28v2.779    c-0.335-0.286-0.685-0.553-1.047-0.809c-0.23-3.174-1.89-6.076-4.628-7.902c-0.104-0.07-0.218-0.12-0.325-0.184v-1.684    C30,41.804,29.956,41.133,29.886,40.466z M39.832,29.051l0.078,0.117c0.059,0.088,0.09,0.191,0.09,0.297    C40,29.76,39.76,30,39.465,30H37v3.525C37,34.338,36.339,35,35.525,35c-0.207,0-0.409-0.043-0.599-0.127l-6.912-3.072    c0.074-2.263,0.981-4.381,2.59-5.99l0.293-0.293c1.732-0.181,3.46-0.396,5.171-0.682l2.091-0.348    C38.325,26.139,38.855,27.586,39.832,29.051z M23,22h2v1.938c-0.698,0.025-1.396,0.036-2.093,0.043    C22.965,23.478,23,22.971,23,22.458V22z M27,21.969c0.669-0.026,1.336-0.071,2-0.15v1.884c-0.666,0.056-1.333,0.089-2,0.129    V21.969z M40,22.153l-1,0.167v-2.289C39.333,20.016,39.666,20,40,20V22.153z M37,22.653l-1.26,0.21    c-0.246,0.041-0.494,0.069-0.74,0.108v-2.418c0.662-0.145,1.328-0.268,2-0.355V22.653z M33,23.261    c-0.665,0.088-1.332,0.163-2,0.235v-2.003c0.385-0.078,0.771-0.155,1.152-0.251L33,21.031V23.261z M24.731,14.896l0.024-0.034    C26.499,12.443,29.315,11,32.299,11c2.047,0,3.954,0.917,5.233,2.516C38.479,14.698,39,16.185,39,17.702v0.329    c-1.738,0.069-3.467,0.305-5.152,0.727l-2.18,0.545C29.816,19.765,27.91,20,26,20h-2.977    C23.082,18.161,23.657,16.401,24.731,14.896z M14.409,44.489l0.271-4.348c0.186-2.963,1.573-5.784,3.807-7.739    c1.959-1.714,3.33-3.954,4.013-6.412c1.844-0.011,3.692-0.088,5.537-0.219C26.72,27.605,26,29.793,26,32.096    c0,1.391,0.262,2.751,0.778,4.044C27.589,38.165,28,40.298,28,42.481v0.818C27.311,43.109,26.598,43,25.871,43    c-3.328,0-6.35,2.093-7.518,5.208C17.455,50.603,17,53.114,17,55.672v0.722c0,1.332,0.345,2.612,0.968,3.739    c-4.776-1.549-8.388-3.797-10.144-5.023C11.671,52.891,14.132,48.924,14.409,44.489z"/>
		<rect x="22" y="54" width="2" height="2"/>
		<rect x="43" y="53" width="2" height="2"/>
		<polygon points="50.627,7.357 52.529,7.975 52.845,7.003 54.389,7.517 53.428,8.839 52.619,8.251 51.443,9.87 52.252,10.458     51.665,11.266 53.282,12.442 53.87,11.633 54.679,12.221 55.854,10.603 55.046,10.015 56,8.701 56.954,10.015 56.146,10.603     57.321,12.221 58.13,11.633 58.718,12.442 60.335,11.266 59.748,10.458 60.557,9.87 59.381,8.251 58.572,8.839 57.611,7.517     59.155,7.003 59.471,7.975 61.373,7.357 61.053,6.37 62.316,5.949 61.684,4.051 60.435,4.468 60.138,3.553 58.235,4.171     58.537,5.1 57,5.612 57,4 58,4 58,2 57,2 57,1 55,1 55,2 54,2 54,4 55,4 55,5.612 53.463,5.1 53.765,4.171 51.862,3.553     51.565,4.468 50.316,4.051 49.684,5.949 50.947,6.37   "/>
		<polygon points="5.282,23.442 5.87,22.633 6.679,23.221 7.854,21.603 7.046,21.015 8,19.701 8.954,21.015 8.146,21.603     9.321,23.221 10.13,22.633 10.718,23.442 12.335,22.266 11.748,21.458 12.557,20.87 11.381,19.251 10.572,19.839 9.611,18.517     11.155,18.003 11.471,18.975 13.373,18.357 13.053,17.37 14.316,16.949 13.684,15.051 12.435,15.468 12.138,14.553 10.235,15.171     10.537,16.1 9,16.612 9,15 10,15 10,13 9,13 9,12 7,12 7,13 6,13 6,15 7,15 7,16.612 5.463,16.1 5.765,15.171 3.862,14.553     3.565,15.468 2.316,15.051 1.684,16.949 2.947,17.37 2.627,18.357 4.529,18.975 4.845,18.003 6.389,18.517 5.428,19.839     4.619,19.251 3.443,20.87 4.252,21.458 3.665,22.266   "/>
		<polygon points="59.381,44.251 58.572,44.839 57.611,43.517 59.155,43.003 59.471,43.975 61.373,43.357 61.053,42.37     62.316,41.949 61.684,40.051 60.435,40.468 60.138,39.553 58.235,40.171 58.537,41.1 57,41.612 57,40 58,40 58,38 57,38 57,37     55,37 55,38 54,38 54,40 55,40 55,41.612 53.463,41.1 53.765,40.171 51.862,39.553 51.565,40.468 50.316,40.051 49.684,41.949     50.947,42.37 50.627,43.357 52.529,43.975 52.845,43.003 54.389,43.517 53.428,44.839 52.619,44.251 51.443,45.87 52.252,46.458     51.665,47.266 53.282,48.442 53.87,47.633 54.679,48.221 55.854,46.603 55.046,46.015 56,44.701 56.954,46.015 56.146,46.603     57.321,48.221 58.13,47.633 58.718,48.442 60.335,47.266 59.748,46.458 60.557,45.87   "/>
		<rect x="39" y="3" width="2" height="2"/>
		<rect x="5" y="26" width="2" height="2"/>
		<rect x="11" y="1" width="2" height="2"/>
		<rect x="61" y="18" width="2" height="2"/>
		<rect x="57" y="57" width="2" height="2"/>
		<rect x="1" y="61" width="2" height="2"/>
		<rect x="7" y="45" width="2" height="2"/>
		<rect x="61" y="61" width="2" height="2"/>
	</g>
</g>
</svg>
