<?xml version="1.0" encoding="iso-8859-1"?>
<!-- Generator: Adobe Illustrator 22.1.0, SVG Export Plug-In . SVG Version: 6.00 Build 0)  -->
<svg xmlns="http://www.w3.org/2000/svg" xmlns:xlink="http://www.w3.org/1999/xlink" version="1.1" id="Layer_1_1_" x="0px" y="0px" viewBox="0 0 64 64" style="enable-background:new 0 0 64 64;" xml:space="preserve" width="512" height="512">
<g>
	<g>
		<path d="M53,19c-0.392,0-0.782,0.032-1.17,0.078C50.913,13.908,46.352,10,41,10c-1.37,0-2.706,0.265-3.95,0.747    C34.88,4.956,29.26,1,23,1C14.729,1,8,7.729,8,16c0,1.137,0.128,2.263,0.379,3.36C4.135,20.516,1,24.394,1,29    c0,5.514,4.486,10,10,10h28v-2H11c-4.411,0-8-3.589-8-8s3.589-8,8-8s8,3.589,8,8h2c0-5.514-4.486-10-10-10    c-0.216,0-0.427,0.019-0.64,0.032C10.124,18.044,10,17.028,10,16c0-7.168,5.832-13,13-13c5.495,0,10.417,3.519,12.243,8.643    c-1.76,1.083-3.22,2.652-4.148,4.567l1.801,0.872C34.391,13.995,37.571,12,41,12c4.408,0,8.158,3.239,8.875,7.51    c-1.142,0.376-2.218,0.95-3.161,1.713l1.258,1.555C49.409,21.614,51.147,21,53,21c4.411,0,8,3.589,8,8s-3.589,8-8,8h-8v2h8    c5.514,0,10-4.486,10-10S58.514,19,53,19z"/>
		<polygon points="34,22 34,20 25,20 25,34 27,34 27,27 32,27 32,25 27,25 27,22   "/>
		<path d="M18,17c0,1.654,1.346,3,3,3s3-1.346,3-3s-1.346-3-3-3S18,15.346,18,17z M22,17c0,0.551-0.448,1-1,1s-1-0.449-1-1    s0.448-1,1-1S22,16.449,22,17z"/>
	</g>
	<g>
		<g>
			<path style="fill:#F0BC5E;" d="M42,63c-3.859,0-7-3.141-7-7c0-2.289,1.136-4.437,3-5.738V29c0-2.206,1.794-4,4-4s4,1.794,4,4     v21.262c1.864,1.302,3,3.449,3,5.738C49,59.859,45.859,63,42,63z"/>
		</g>
	</g>
	<g>
		<path d="M41,56h-2c0-1.654,1.346-3,3-3v2C41.448,55,41,55.449,41,56z"/>
	</g>
	<g>
		<rect x="38" y="30" width="4" height="2"/>
	</g>
	<g>
		<rect x="38" y="35" width="4" height="2"/>
	</g>
	<g>
		<rect x="38" y="40" width="4" height="2"/>
	</g>
	<g>
		<rect x="38" y="45" width="4" height="2"/>
	</g>
</g>
</svg>
