<?xml version="1.0" encoding="iso-8859-1"?>
<!-- Generator: Adobe Illustrator 22.1.0, SVG Export Plug-In . SVG Version: 6.00 Build 0)  -->
<svg xmlns="http://www.w3.org/2000/svg" xmlns:xlink="http://www.w3.org/1999/xlink" version="1.1" id="Layer_1_1_" x="0px" y="0px" viewBox="0 0 64 64" style="enable-background:new 0 0 64 64;" xml:space="preserve" width="512" height="512">
<g>
	<g>
		<rect x="13" y="57" width="12" height="2"/>
		<path d="M57.993,25.294C57.998,25.195,58,25.097,58,25c0-4.411-3.589-8-8-8c-1.383,0-2.685,0.353-3.821,0.973    C44.155,14.89,40.738,13,37,13V6c0-2.757-2.243-5-5-5H6C3.243,1,1,3.243,1,6v52c0,2.757,2.243,5,5,5h26c2.757,0,5-2.243,5-5V39h13    v-2H32.556v2H35v14H3V11h32v2.191c-5.112,0.944-9,5.427-9,10.809c0,0.358,0.025,0.715,0.06,1.071C22.644,25.533,20,28.46,20,32    c0,3.86,3.141,7,7,7h1v-2h-1c-2.757,0-5-2.243-5-5s2.243-5,5-5s5,2.243,5,5h2c0-3.495-2.578-6.392-5.93-6.909    C28.026,24.729,28,24.365,28,24c0-4.962,4.037-9,9-9c3.091,0,5.912,1.58,7.56,4.151C42.99,20.612,42,22.69,42,25h2    c0-3.309,2.691-6,6-6s6,2.691,6,6c0,0.277-0.025,0.571-0.079,0.925l-0.151,0.989l0.989,0.151C59.177,27.433,61,29.555,61,32    c0,2.757-2.243,5-5,5h-1.444v2H56c3.859,0,7-3.14,7-7C63,28.842,60.944,26.157,57.993,25.294z M35,55v3c0,1.654-1.346,3-3,3H6    c-1.654,0-3-1.346-3-3v-3H35z M3,9V6c0-1.654,1.346-3,3-3h26c1.654,0,3,1.346,3,3v3H3z"/>
	</g>
	<g>
		<g>
			<path style="fill:#F0BC5E;" d="M44.5,51c-1.93,0-3.5-1.57-3.5-3.5v-6.266l5.301,3.18C47.349,45.044,48,46.193,48,47.415     C48,49.43,46.43,51,44.5,51z"/>
		</g>
	</g>
	<g>
		<g>
			<path style="fill:#F0BC5E;" d="M52.5,43c-1.93,0-3.5-1.57-3.5-3.5v-6.266l5.301,3.18C55.349,37.044,56,38.193,56,39.415     C56,41.43,54.43,43,52.5,43z"/>
		</g>
	</g>
	<g>
		<g>
			<path style="fill:#F0BC5E;" d="M30.5,43c-1.93,0-3.5-1.57-3.5-3.5v-6.266l5.301,3.18C33.349,37.044,34,38.193,34,39.415     C34,41.43,32.43,43,30.5,43z"/>
		</g>
	</g>
</g>
</svg>
