<?xml version="1.0" encoding="iso-8859-1"?>
<!-- Generator: Adobe Illustrator 22.1.0, SVG Export Plug-In . SVG Version: 6.00 Build 0)  -->
<svg xmlns="http://www.w3.org/2000/svg" xmlns:xlink="http://www.w3.org/1999/xlink" version="1.1" id="Layer_1_1_" x="0px" y="0px" viewBox="0 0 64 64" style="enable-background:new 0 0 64 64;" xml:space="preserve" width="512" height="512">
<g>
	<polygon points="61.66,22.662 62.178,20.73 56.313,19.159 60.284,16.866 59.284,15.134 55.313,17.426 56.885,11.562 54.953,11.045    52.864,18.84 45.787,22.927 47.358,17.062 45.427,16.545 43.338,24.341 38.997,26.847 33,23.42 33,19.414 38.707,13.707    37.293,12.293 33,16.586 33,8.414 38.707,2.707 37.293,1.293 33,5.586 33,1 31,1 31,5.586 26.707,1.293 25.293,2.707 31,8.414    31,16.586 26.707,12.293 25.293,13.707 31,19.414 31,23.42 25.003,26.847 20.662,24.341 18.573,16.545 16.642,17.062    18.213,22.927 11.136,18.84 9.047,11.045 7.115,11.562 8.687,17.426 4.716,15.134 3.716,16.866 7.687,19.159 1.822,20.73    2.34,22.662 10.136,20.573 17.213,24.659 11.349,26.23 11.866,28.162 19.662,26.073 24,28.578 24,36.422 20.365,38.515    12.538,36.418 12.021,38.35 17.911,39.928 10.82,44.01 3.012,41.918 2.494,43.85 8.366,45.423 4.388,47.713 5.386,49.446    9.357,47.16 7.787,53.017 9.719,53.535 11.805,45.751 18.878,41.679 17.313,47.517 19.245,48.035 21.326,40.269 24.928,38.196    28.4,40.8 29.6,39.2 26,36.5 26,28.58 32,25.152 38,28.58 38,36.5 34.4,39.2 35.6,40.8 39.072,38.196 42.4,40.118 44.488,47.914    46.42,47.396 44.849,41.532 51.926,45.617 54.015,53.414 55.946,52.896 54.375,47.032 58.347,49.325 59.347,47.592 55.375,45.299    61.239,43.728 60.722,41.796 52.926,43.885 45.849,39.799 51.713,38.228 51.195,36.296 43.4,38.385 40,36.422 40,28.578    44.338,26.073 52.134,28.162 52.651,26.23 46.787,24.659 53.864,20.573  "/>
	<g>
		<path style="fill:#F0BC5E;" d="M31.991,62.998c-0.42,0-0.844-0.043-1.266-0.13c-2.333-0.483-4.19-2.394-4.623-4.753    c-0.382-2.082,0.342-4.168,1.897-5.563V32c0-2.206,1.794-4,4-4s4,1.794,4,4v20.551c1.277,1.142,2,2.736,2,4.449    c0,1.813-0.808,3.51-2.215,4.655C34.706,62.533,33.37,62.998,31.991,62.998z"/>
	</g>
	<g>
		<rect x="28" y="35" width="4" height="2"/>
	</g>
	<g>
		<rect x="28" y="40" width="4" height="2"/>
	</g>
	<g>
		<rect x="28" y="45" width="4" height="2"/>
	</g>
	<g>
		<rect x="28" y="50" width="4" height="2"/>
	</g>
	<g>
		<rect x="31" y="56" width="2" height="2"/>
	</g>
</g>
</svg>
