<?xml version="1.0" encoding="iso-8859-1"?>
<!-- Generator: Adobe Illustrator 22.1.0, SVG Export Plug-In . SVG Version: 6.00 Build 0)  -->
<svg xmlns="http://www.w3.org/2000/svg" xmlns:xlink="http://www.w3.org/1999/xlink" version="1.1" id="Layer_1_1_" x="0px" y="0px" viewBox="0 0 64 64" style="enable-background:new 0 0 64 64;" xml:space="preserve" width="512" height="512">
<g>
	<g>
		<path style="fill:#F0BC5E;" d="M40,1C27.297,1,17,11.297,17,24c0,2.172,0.308,4.272,0.871,6.264C18.554,30.098,19.265,30,20,30    c4.11,0,7.576,2.755,8.654,6.519l0,0C29.848,35.57,31.356,35,33,35c3.866,0,7,3.134,7,7c0,0.326-0.031,0.644-0.074,0.958L40,43    c2.365,0,4.405,1.372,5.382,3.36C55.487,43.937,63,34.848,63,24C63,11.297,52.703,1,40,1z"/>
	</g>
	<g>
		<path d="M40.994,42.079C40.994,42.052,41,42.027,41,42c0-4.411-3.589-8-8-8c-1.394,0-2.704,0.36-3.846,0.989    C27.579,31.408,23.989,29,20,29c-5.177,0-9.447,3.956-9.949,9.003C10.034,38.002,10.017,38,10,38c-4.962,0-9,4.037-9,9    s4.038,9,9,9h30c3.86,0,7-3.141,7-7C47,45.479,44.383,42.564,40.994,42.079z M40,54H10c-3.86,0-7-3.141-7-7s3.14-7,7-7    s7,3.141,7,7h2c0-4.261-2.979-7.831-6.962-8.758C12.422,34.185,15.845,31,20,31c3.347,0,6.325,2.128,7.477,5.226    C25.954,37.684,25,39.731,25,42h2c0-3.309,2.691-6,6-6s6,2.691,6,6c0,1.234-0.372,2.42-1.075,3.428l1.641,1.145    c0.534-0.766,0.907-1.613,1.145-2.5C43.129,44.42,45,46.486,45,49C45,51.757,42.757,54,40,54z"/>
		<path d="M56,30v-2c-0.551,0-1-0.449-1-1s0.449-1,1-1s1,0.449,1,1h2c0-1.654-1.346-3-3-3s-3,1.346-3,3S54.346,30,56,30z"/>
		<path d="M29,19c2.206,0,4-1.794,4-4h-2c0,1.103-0.897,2-2,2s-2-0.897-2-2s0.897-2,2-2v-2c-2.206,0-4,1.794-4,4S26.794,19,29,19z"/>
		<rect x="46" y="13" width="2" height="2"/>
		<rect x="40" y="23" width="2" height="2"/>
		<rect x="49" y="37" width="2" height="2"/>
		<rect x="37" y="6" width="2" height="2"/>
		<rect x="24" y="22" width="2" height="2"/>
		<path d="M31,29h2c0-0.551,0.449-1,1-1s1,0.449,1,1s-0.449,1-1,1v2c1.654,0,3-1.346,3-3s-1.346-3-3-3S31,27.346,31,29z"/>
		<path d="M8,15v2h2v-2c0-2.757,2.243-5,5-5h2V8h-2c-2.757,0-5-2.243-5-5V1H8v2c0,2.757-2.243,5-5,5H1v2h2C5.757,10,8,12.243,8,15z     M9,6.587C9.594,7.577,10.423,8.406,11.413,9C10.423,9.594,9.594,10.423,9,11.413C8.406,10.423,7.577,9.594,6.587,9    C7.577,8.406,8.406,7.577,9,6.587z"/>
		<path d="M61,54c-2.757,0-5-2.243-5-5v-2h-2v2c0,2.757-2.243,5-5,5h-2v2h2c2.757,0,5,2.243,5,5v2h2v-2c0-2.757,2.243-5,5-5h2v-2H61    z M55,57.413c-0.594-0.99-1.423-1.819-2.413-2.413c0.99-0.594,1.819-1.423,2.413-2.413c0.594,0.99,1.423,1.819,2.413,2.413    C56.423,55.594,55.594,56.423,55,57.413z"/>
	</g>
</g>
</svg>
