<?xml version="1.0" encoding="iso-8859-1"?>
<!-- Generator: Adobe Illustrator 22.1.0, SVG Export Plug-In . SVG Version: 6.00 Build 0)  -->
<svg xmlns="http://www.w3.org/2000/svg" xmlns:xlink="http://www.w3.org/1999/xlink" version="1.1" id="Layer_1_1_" x="0px" y="0px" viewBox="0 0 64 64" style="enable-background:new 0 0 64 64;" xml:space="preserve" width="512" height="512">
<g>
	<g>
		<polygon style="fill:#F0BC5E;" points="52.198,36 53.983,26.179 47.02,25.804 43.78,42 48.808,42 45.808,59 48.689,59 57.451,36       "/>
	</g>
	<path d="M57.993,13.294C57.998,13.195,58,13.097,58,13c0-4.411-3.589-8-8-8c-1.383,0-2.685,0.353-3.821,0.973   C44.155,2.89,40.738,1,37,1c-6.065,0-11,4.935-11,11c0,0.359,0.025,0.717,0.06,1.074c-2.579,0.35-4.792,2.11-5.668,4.612   l1.889,0.66C22.98,16.345,24.877,15,27,15c2.757,0,5,2.243,5,5h2c0-3.495-2.578-6.392-5.93-6.909C28.026,12.729,28,12.365,28,12   c0-4.962,4.037-9,9-9c3.091,0,5.912,1.58,7.56,4.151C42.99,8.612,42,10.69,42,13h2c0-3.309,2.691-6,6-6s6,2.691,6,6   c0,0.277-0.025,0.571-0.079,0.925l-0.151,0.989l0.989,0.151C59.177,15.433,61,17.555,61,20c0,2.757-2.243,5-5,5H33.315v2H56   c3.859,0,7-3.14,7-7C63,16.842,60.944,14.157,57.993,13.294z"/>
	<g>
		<path style="fill:#F0BC5E;" d="M17,48v-3.764c-1.322-1.065-2.301-2.541-2.738-4.236H14c-2.339,0-4.209-2.007-3.981-4.393    C10.217,33.527,12.083,32,14.172,32h4.971c1.049-0.498,2.02-1.163,2.857-2c0.837,0.837,1.808,1.502,2.857,2H30    c2.209,0,4,1.791,4,4c0,2.209-1.791,4-4,4h-0.262c-0.437,1.695-1.415,3.171-2.738,4.236V48l7.081,1.517l5.531-3.319l-0.905-0.905    C36.316,42.902,35,39.724,35,36.343V30c0-7.168-5.832-13-13-13S9,22.832,9,30v6.343c0,3.381-1.316,6.56-3.707,8.95l-0.905,0.905    l5.531,3.319L17,48z"/>
	</g>
	<path d="M36.892,49.097L28,47.191v-2.502c1.121-1.007,1.987-2.287,2.493-3.739C33.016,40.698,35,38.588,35,36   c0-2.414-1.721-4.434-4-4.899V30h-2v1.988c-2.377-0.061-4.604-1.007-6.293-2.695L22,28.586l-0.707,0.707   c-1.689,1.688-3.916,2.634-6.293,2.695V30h-2v1.147c-2.111,0.484-3.772,2.221-3.977,4.366c-0.135,1.407,0.331,2.811,1.275,3.85   c0.834,0.917,1.984,1.462,3.207,1.586c0.506,1.453,1.372,2.734,2.494,3.741v2.502l-8.892,1.905   c-3.014,0.646-5.226,3.143-5.504,6.211L0.905,63h42.189l-0.699-7.692C42.117,52.239,39.905,49.743,36.892,49.097z M16.678,49.092   L20.586,53l-2.195,2.194l-2.246-5.988L16.678,49.092z M27.322,49.092l0.533,0.114l-2.246,5.988L23.414,53L27.322,49.092z M33,36   c0,1.317-0.859,2.427-2.042,2.829C30.983,38.555,31,38.28,31,38v-4.816C32.161,33.598,33,34.698,33,36z M11.779,38.018   c-0.575-0.633-0.848-1.455-0.766-2.315c0.108-1.132,0.91-2.079,1.986-2.487V38c0,0.279,0.017,0.553,0.042,0.826   C12.564,38.664,12.124,38.397,11.779,38.018z M15,38v-4.011c2.591-0.055,5.037-0.973,7-2.632c1.963,1.659,4.409,2.577,7,2.632V38   c0,3.859-3.141,7-7,7S15,41.859,15,38z M22,47c1.438,0,2.793-0.347,4-0.95v1.535l-4,4l-4-4V46.05C19.207,46.653,20.562,47,22,47z    M3.095,61l0.502-5.511c0.198-2.192,1.778-3.976,3.932-4.438l6.639-1.422l3.442,9.176L22,54.414l4.391,4.391l3.442-9.176   l6.639,1.422c2.153,0.462,3.733,2.245,3.932,4.438L40.905,61H3.095z"/>
	<path d="M24,5c0-2.206-1.794-4-4-4s-4,1.794-4,4h2c0-1.103,0.897-2,2-2s2,0.897,2,2s-0.897,2-2,2H5v2h15C22.206,9,24,7.206,24,5z"/>
	<rect x="1" y="7" width="2" height="2"/>
	<path d="M13,16.5c0-1.93-1.57-3.5-3.5-3.5c-1.658,0-3.101,1.178-3.431,2.801l1.961,0.397C8.171,15.504,8.789,15,9.5,15   c0.827,0,1.5,0.673,1.5,1.5S10.327,18,9.5,18H1v2h8.5C11.43,20,13,18.43,13,16.5z"/>
</g>
</svg>
