<?xml version="1.0" encoding="iso-8859-1"?>
<!-- Generator: Adobe Illustrator 22.1.0, SVG Export Plug-In . SVG Version: 6.00 Build 0)  -->
<svg xmlns="http://www.w3.org/2000/svg" xmlns:xlink="http://www.w3.org/1999/xlink" version="1.1" id="Layer_1_1_" x="0px" y="0px" viewBox="0 0 64 64" style="enable-background:new 0 0 64 64;" xml:space="preserve" width="512" height="512">
<g>
	<g>
		<path style="fill:#F0BC5E;" d="M32,1C16.561,1,4,13.561,4,29v3.023C4.838,31.39,5.869,31,7,31c0.545,0,1.061,0.109,1.552,0.271    C9.616,28.761,12.102,27,15,27c1.107,0,2.152,0.26,3.082,0.718l0.004-0.287C18.877,20.344,24.858,15,32,15c7.72,0,14,6.28,14,14    v18.428c0.209,0.351,0.397,0.715,0.543,1.102C47.294,48.192,48.124,48,49,48c2.797,0,5.14,1.916,5.805,4.506l0.002-0.001    C55.469,52.182,56.213,52,57,52c1.131,0,2.162,0.39,3,1.023V29C60,13.561,47.439,1,32,1z"/>
	</g>
	<g>
		<path d="M57,51c-0.339,0-0.672,0.037-1,0.092V32h-2v17.111c-0.574-0.587-1.251-1.068-2-1.425V43h-2v4.08    C49.672,47.033,49.34,47,49,47c-0.657,0-1.303,0.092-1.929,0.272C45.7,44.683,42.971,43,40,43c-4.411,0-8,3.589-8,8    c0,0.03,0.006,0.06,0.006,0.089C29.17,51.565,27,54.031,27,57c0,3.309,2.691,6,6,6h24c3.309,0,6-2.691,6-6S60.309,51,57,51z     M57,61H33c-2.206,0-4-1.794-4-4s1.794-4,4-4s4,1.794,4,4h2c0-2.965-2.164-5.428-4.994-5.909C34.006,51.061,34,51.03,34,51    c0-3.309,2.691-6,6-6c2.477,0,4.73,1.561,5.607,3.884l0.376,0.995l0.97-0.437C47.605,49.148,48.293,49,49,49c2.757,0,5,2.243,5,5    c0,0.275-0.022,0.553-0.067,0.824l1.974,0.324C55.968,54.771,56,54.384,56,54c0-0.286-0.022-0.567-0.056-0.844    C56.286,53.062,56.637,53,57,53c2.206,0,4,1.794,4,4S59.206,61,57,61z"/>
		<path d="M29,36c0-3.309-2.691-6-6-6c-0.332,0-0.668,0.032-1.014,0.099C20.583,27.583,17.927,26,15,26    c-0.252,0-0.498,0.027-0.745,0.05C15.677,17.51,23.213,11,32,11c9.925,0,18,8.075,18,18v12h2V29c0-11.028-8.972-20-20-20    c-10.037,0-18.598,7.647-19.827,17.529c-0.769,0.291-1.491,0.686-2.133,1.193C10.704,16.184,20.298,7,32,7    c12.131,0,22,9.869,22,22v1h2v-1C56,15.767,45.233,5,32,5S8,15.767,8,29v1.097C7.659,30.033,7.327,30,7,30c-3.309,0-6,2.691-6,6    s2.691,6,6,6h16C26.309,42,29,39.309,29,36z M23,40H7c-2.206,0-4-1.794-4-4s1.794-4,4-4c0.382,0,0.788,0.072,1.241,0.221    l0.874,0.286l0.359-0.846C10.416,29.437,12.585,28,15,28s4.584,1.437,5.527,3.661l0.359,0.846l0.874-0.286    C22.212,32.072,22.618,32,23,32c2.206,0,4,1.794,4,4S25.206,40,23,40z"/>
	</g>
</g>
</svg>
