<?xml version="1.0" encoding="iso-8859-1"?>
<!-- Generator: Adobe Illustrator 22.1.0, SVG Export Plug-In . SVG Version: 6.00 Build 0)  -->
<svg xmlns="http://www.w3.org/2000/svg" xmlns:xlink="http://www.w3.org/1999/xlink" version="1.1" id="Layer_1_1_" x="0px" y="0px" viewBox="0 0 64 64" style="enable-background:new 0 0 64 64;" xml:space="preserve" width="512" height="512">
<g>
	<path style="fill:#F0BC5E;" d="M25.388,13.11c-0.25-0.214-0.569-0.332-0.898-0.332H24.38c-0.762,0-1.38,0.618-1.38,1.38   c0,0.394,0.169,0.77,0.463,1.032L30,21v4h4v-4l6.537-5.81C40.831,14.928,41,14.552,41,14.158c0-0.762-0.618-1.38-1.38-1.38h-0.109   c-0.329,0-0.648,0.118-0.898,0.332L34,17.063v-5.841l6.537-5.81C40.831,5.15,41,4.774,41,4.38C41,3.618,40.382,3,39.62,3h-0.109   c-0.329,0-0.648,0.118-0.898,0.332L34,7.286V4c0-1.105-0.895-2-2-2s-2,0.895-2,2v3.286l-4.612-3.953   C25.138,3.118,24.819,3,24.489,3H24.38C23.618,3,23,3.618,23,4.38c0,0.394,0.169,0.77,0.463,1.032L30,11.222v5.841L25.388,13.11z"/>
	<path style="fill:#F0BC5E;" d="M3.581,25.984c0.341,0.197,0.751,0.239,1.125,0.115l8.3-2.756l5.059,2.921l-5.73,2.018   c-0.311,0.109-0.572,0.326-0.737,0.612l-0.055,0.095c-0.381,0.66-0.155,1.504,0.505,1.885c0.341,0.197,0.751,0.239,1.125,0.115   l8.3-2.756L26,30.845l0.718-4.204l-3.244-1.873l-1.764-8.566c-0.079-0.386-0.32-0.72-0.662-0.917   c-0.66-0.381-1.504-0.155-1.885,0.505l-0.055,0.095c-0.165,0.285-0.222,0.62-0.161,0.944l1.118,5.971l-5.059-2.921l-1.764-8.566   c-0.079-0.386-0.32-0.72-0.662-0.917c-0.66-0.381-1.504-0.155-1.885,0.505l-0.055,0.095c-0.165,0.285-0.222,0.62-0.161,0.944   l1.118,5.971l-2.846-1.643C7.795,15.716,6.572,16.043,6.019,17c-0.552,0.957-0.225,2.18,0.732,2.732l2.846,1.643l-5.73,2.018   c-0.311,0.109-0.572,0.326-0.737,0.612l-0.055,0.095C2.694,24.759,2.92,25.603,3.581,25.984z"/>
	<path style="fill:#F0BC5E;" d="M26.718,37.359L26,33.155l-4.526,2.613l-8.3-2.756c-0.374-0.124-0.784-0.083-1.125,0.115   c-0.66,0.381-0.886,1.225-0.505,1.885l0.055,0.095c0.165,0.285,0.426,0.502,0.737,0.612l5.73,2.018l-5.059,2.921l-8.3-2.756   c-0.374-0.124-0.784-0.083-1.125,0.115c-0.66,0.381-0.886,1.225-0.505,1.885l0.055,0.095c0.165,0.285,0.426,0.502,0.737,0.612   l5.73,2.018l-2.846,1.643C5.795,44.82,5.467,46.043,6.019,47c0.552,0.957,1.775,1.284,2.732,0.732l2.846-1.643l-1.118,5.971   c-0.061,0.324-0.003,0.659,0.161,0.944l0.055,0.095c0.381,0.66,1.225,0.886,1.885,0.505c0.341-0.197,0.582-0.531,0.662-0.917   l1.764-8.566l5.059-2.921l-1.118,5.971c-0.061,0.324-0.003,0.659,0.161,0.944l0.055,0.095c0.381,0.66,1.225,0.886,1.885,0.505   c0.341-0.197,0.582-0.531,0.662-0.917l1.764-8.566L26.718,37.359z"/>
	<path style="fill:#F0BC5E;" d="M38.612,50.89c0.25,0.214,0.569,0.332,0.898,0.332h0.109c0.762,0,1.38-0.618,1.38-1.38   c0-0.394-0.169-0.77-0.463-1.032L34,43v-4h-4v4l-6.537,5.81C23.169,49.072,23,49.448,23,49.842c0,0.762,0.618,1.38,1.38,1.38h0.109   c0.329,0,0.648-0.118,0.898-0.332L30,46.937v5.841l-6.537,5.81C23.169,58.85,23,59.226,23,59.62c0,0.762,0.618,1.38,1.38,1.38   h0.109c0.329,0,0.648-0.118,0.898-0.332L30,56.714V60c0,1.105,0.895,2,2,2s2-0.895,2-2v-3.286l4.612,3.953   C38.862,60.882,39.181,61,39.511,61h0.109c0.762,0,1.38-0.618,1.38-1.38c0-0.394-0.169-0.77-0.463-1.032L34,52.778v-5.841   L38.612,50.89z"/>
	<path style="fill:#F0BC5E;" d="M60.419,38.016c-0.341-0.197-0.751-0.239-1.125-0.115l-8.3,2.756l-5.059-2.921l5.73-2.018   c0.311-0.109,0.572-0.326,0.737-0.612l0.055-0.095c0.381-0.66,0.155-1.504-0.505-1.885c-0.341-0.197-0.751-0.239-1.125-0.115   l-8.3,2.756L38,33.155l-0.718,4.204l3.244,1.873l1.764,8.566c0.079,0.386,0.32,0.72,0.662,0.917   c0.66,0.381,1.504,0.155,1.885-0.505l0.055-0.095c0.165-0.285,0.222-0.62,0.161-0.944L43.935,41.2l5.059,2.921l1.764,8.566   c0.079,0.386,0.32,0.72,0.662,0.917c0.66,0.381,1.504,0.155,1.885-0.505l0.055-0.095c0.165-0.285,0.222-0.62,0.161-0.944   l-1.118-5.971l2.846,1.643c0.957,0.552,2.18,0.224,2.732-0.732c0.552-0.957,0.225-2.18-0.732-2.732l-2.846-1.643l5.73-2.018   c0.311-0.109,0.572-0.326,0.737-0.612l0.055-0.095C61.306,39.241,61.08,38.397,60.419,38.016z"/>
	<path style="fill:#F0BC5E;" d="M37.282,26.641L38,30.845l4.526-2.613l8.3,2.756c0.374,0.124,0.784,0.083,1.125-0.115   c0.66-0.381,0.886-1.225,0.505-1.885l-0.055-0.095c-0.165-0.285-0.426-0.502-0.737-0.612l-5.73-2.018l5.059-2.921l8.3,2.756   c0.374,0.124,0.784,0.083,1.125-0.115c0.66-0.381,0.886-1.225,0.505-1.885l-0.055-0.095c-0.165-0.285-0.426-0.502-0.737-0.612   l-5.73-2.018l2.846-1.643c0.957-0.552,1.284-1.776,0.732-2.732c-0.552-0.957-1.775-1.284-2.732-0.732l-2.846,1.643l1.118-5.971   c0.061-0.324,0.003-0.659-0.161-0.944l-0.055-0.095c-0.381-0.66-1.225-0.886-1.885-0.505c-0.341,0.197-0.582,0.531-0.662,0.917   l-1.764,8.566L43.935,22.8l1.118-5.971c0.061-0.324,0.003-0.659-0.161-0.944l-0.055-0.095c-0.381-0.66-1.225-0.886-1.885-0.505   c-0.341,0.197-0.582,0.531-0.662,0.917l-1.764,8.566L37.282,26.641z"/>
	<path d="M32,41.118l-7-3.5V26.382l7-3.5l7,3.5v11.236L32,41.118z M27,36.382l5,2.5l5-2.5v-8.764l-5-2.5l-5,2.5V36.382z"/>
	<path d="M32,36.118l-3-1.5v-5.236l3-1.5l3,1.5v5.236L32,36.118z M31,33.382l1,0.5l1-0.5v-2.764l-1-0.5l-1,0.5V33.382z"/>
</g>
</svg>
