<?xml version="1.0" encoding="iso-8859-1"?>
<!-- Generator: Adobe Illustrator 22.1.0, SVG Export Plug-In . SVG Version: 6.00 Build 0)  -->
<svg xmlns="http://www.w3.org/2000/svg" xmlns:xlink="http://www.w3.org/1999/xlink" version="1.1" id="Layer_1_1_" x="0px" y="0px" viewBox="0 0 64 64" style="enable-background:new 0 0 64 64;" xml:space="preserve" width="512" height="512">
<g>
	<g>
		<g>
			<path style="fill:#F0BC5E;" d="M32,42.414l-2.586-2.586c-0.28-0.28-0.541-0.583-0.78-0.906c-0.344,0.206-0.7,0.387-1.066,0.539     l-3.38,1.399l-1.399-3.379c-0.151-0.366-0.276-0.746-0.373-1.136c-0.397,0.059-0.796,0.089-1.193,0.089h-3.657v-3.656     c0-0.396,0.03-0.795,0.09-1.193c-0.39-0.097-0.77-0.222-1.136-0.373l-3.379-1.399l1.399-3.379     c0.152-0.366,0.333-0.724,0.539-1.067c-0.323-0.239-0.626-0.5-0.906-0.78L11.586,22l2.586-2.586     c0.28-0.28,0.583-0.541,0.906-0.78c-0.206-0.344-0.387-0.7-0.539-1.066l-1.399-3.38l3.378-1.399     c0.367-0.151,0.747-0.276,1.137-0.373c-0.06-0.398-0.09-0.797-0.09-1.193V7.564h3.657c0.396,0,0.795,0.03,1.193,0.09     c0.097-0.39,0.222-0.77,0.373-1.136l1.399-3.379l3.379,1.399c0.366,0.152,0.724,0.333,1.067,0.539     c0.239-0.323,0.5-0.626,0.78-0.906L32,1.586l2.586,2.586c0.28,0.28,0.541,0.583,0.78,0.906c0.344-0.206,0.7-0.387,1.066-0.539     l3.38-1.399l1.399,3.378c0.151,0.367,0.276,0.747,0.373,1.137c0.398-0.06,0.797-0.09,1.193-0.09h3.657v3.657     c0,0.396-0.03,0.795-0.09,1.193c0.39,0.097,0.77,0.222,1.136,0.373l3.379,1.399l-1.399,3.379     c-0.152,0.366-0.333,0.724-0.539,1.067c0.323,0.239,0.626,0.5,0.906,0.78L52.414,22l-2.586,2.586     c-0.28,0.28-0.583,0.541-0.906,0.78c0.206,0.344,0.387,0.7,0.539,1.066l1.399,3.38l-3.378,1.399     c-0.367,0.151-0.747,0.276-1.137,0.373c0.06,0.398,0.09,0.797,0.09,1.193v3.656h-3.657c-0.397,0-0.796-0.03-1.193-0.089     c-0.097,0.39-0.222,0.77-0.373,1.135l-1.399,3.38l-3.379-1.399c-0.366-0.152-0.724-0.333-1.067-0.539     c-0.239,0.323-0.5,0.626-0.78,0.906L32,42.414z"/>
		</g>
	</g>
	<g>
		<g>
			<path style="fill:#F0BC5E;" d="M6,59H1v-3c0-3.859,3.141-7,7-7h5v3C13,55.859,9.859,59,6,59z"/>
		</g>
	</g>
	<g>
		<g>
			<path style="fill:#F0BC5E;" d="M63,52h-5c-3.859,0-7-3.141-7-7v-3h5c3.859,0,7,3.141,7,7V52z"/>
		</g>
	</g>
	<g>
		<path d="M42.97,56.408C42.672,53.376,40.109,51,37,51c-1.138,0-2.239,0.33-3.189,0.928c-0.254-0.241-0.523-0.464-0.811-0.664    v-17.85l7.707-7.707l-1.414-1.414L33,30.586v-8.172l4.707-4.707l-1.414-1.414L32,20.586l-6.293-6.293l-1.414,1.414L31,22.414    v5.172l-3.293-3.293l-1.414,1.414L31,30.414v19.881C30.366,50.105,29.695,50,29,50c-3.551,0-6.493,2.658-6.941,6.089    C19.75,56.53,18,58.564,18,61h-2v2h32v-2h-2C46,58.943,44.75,57.174,42.97,56.408z M23,58h1v-1c0-2.757,2.243-5,5-5s5,2.243,5,5h2    c0-1.27-0.345-2.459-0.939-3.487C35.651,53.185,36.314,53,37,53c1.863,0,3.419,1.286,3.862,3.013    c-1.169,0.033-2.291,0.462-3.169,1.238l1.324,1.499C39.564,58.266,40.268,58,41,58c1.654,0,3,1.346,3,3H20    C20,59.346,21.346,58,23,58z"/>
		<path d="M7.964,52.155l-1.519,1.013l1.109,1.664l1.519-1.013c3.101-2.067,5.471-4.988,6.855-8.448l-1.857-0.743    C12.839,47.711,10.727,50.313,7.964,52.155z"/>
		<path d="M56.036,45.155c-2.763-1.842-4.875-4.444-6.107-7.527l-1.857,0.743c1.384,3.459,3.754,6.38,6.855,8.448l1.519,1.013    l1.109-1.664L56.036,45.155z"/>
		<rect x="50" y="61" width="2" height="2"/>
		<rect x="12" y="61" width="2" height="2"/>
	</g>
</g>
</svg>
