<?xml version="1.0" encoding="iso-8859-1"?>
<!-- Generator: Adobe Illustrator 22.1.0, SVG Export Plug-In . SVG Version: 6.00 Build 0)  -->
<svg xmlns="http://www.w3.org/2000/svg" xmlns:xlink="http://www.w3.org/1999/xlink" version="1.1" id="Layer_1_1_" x="0px" y="0px" viewBox="0 0 64 64" style="enable-background:new 0 0 64 64;" xml:space="preserve" width="512" height="512">
<g>
	<g>
		<g>
			<path style="fill:#F0BC5E;" d="M19,37c-1.335,0-2.033-1.441-2.708-2.836c-0.255-0.526-0.671-1.386-0.93-1.623     c-0.354,0.067-1.18,0.626-1.685,0.968c-1.258,0.852-2.556,1.732-3.682,1.08c-1.137-0.657-1.021-2.236-0.91-3.764     c0.044-0.599,0.115-1.576,0.003-1.914c-0.34-0.113-1.317-0.04-1.914,0.003c-1.529,0.11-3.107,0.226-3.764-0.91     c-0.651-1.125,0.229-2.425,1.08-3.682c0.342-0.506,0.9-1.331,0.968-1.686c-0.237-0.258-1.097-0.674-1.624-0.93     C2.441,21.032,1,20.335,1,19s1.441-2.033,2.836-2.708c0.526-0.255,1.386-0.671,1.623-0.93c-0.067-0.354-0.626-1.18-0.968-1.685     c-0.852-1.257-1.731-2.557-1.08-3.682c0.657-1.139,2.236-1.021,3.764-0.91C7.773,9.13,8.751,9.2,9.089,9.089     C9.201,8.751,9.13,7.772,9.086,7.175c-0.111-1.527-0.227-3.106,0.91-3.764c1.128-0.652,2.425,0.229,3.682,1.08     c0.506,0.342,1.331,0.9,1.686,0.968c0.258-0.237,0.674-1.097,0.93-1.624C16.968,2.441,17.665,1,19,1s2.033,1.441,2.708,2.836     c0.255,0.526,0.671,1.386,0.93,1.623c0.354-0.067,1.18-0.626,1.685-0.968c1.258-0.852,2.557-1.731,3.682-1.08     c1.137,0.657,1.021,2.236,0.91,3.764c-0.044,0.599-0.115,1.576-0.003,1.914c0.341,0.114,1.318,0.041,1.914-0.003     c1.53-0.11,3.107-0.226,3.764,0.91c0.651,1.125-0.229,2.425-1.08,3.682c-0.342,0.506-0.9,1.331-0.968,1.686     c0.237,0.258,1.097,0.674,1.624,0.93C35.559,16.968,37,17.665,37,19s-1.441,2.033-2.836,2.708     c-0.526,0.255-1.386,0.671-1.623,0.93c0.067,0.354,0.626,1.18,0.968,1.685c0.852,1.257,1.731,2.557,1.08,3.682     c-0.657,1.138-2.238,1.02-3.764,0.91c-0.598-0.043-1.575-0.114-1.914-0.003c-0.112,0.338-0.041,1.316,0.003,1.914     c0.111,1.527,0.227,3.106-0.91,3.764c-1.128,0.654-2.425-0.229-3.682-1.08c-0.506-0.342-1.331-0.9-1.686-0.968     c-0.258,0.237-0.674,1.097-0.93,1.624C21.032,35.559,20.335,37,19,37z"/>
		</g>
	</g>
	<g>
		<path d="M57,40c-0.097,0-0.194,0.011-0.291,0.016C55.851,37.12,53.17,35,50,35c-0.595,0-1.179,0.074-1.747,0.221    C46.734,31.511,43.066,29,39,29c-5.514,0-10,4.486-10,10c0,0.336,0.027,0.67,0.061,1.003C29.04,40.003,29.02,40,29,40    c-3.309,0-6,2.691-6,6s2.691,6,6,6h28c3.309,0,6-2.691,6-6S60.309,40,57,40z M57,50H29c-2.206,0-4-1.794-4-4s1.794-4,4-4    s4,1.794,4,4h2c0-2.555-1.608-4.737-3.864-5.6C31.055,39.939,31,39.473,31,39c0-4.411,3.589-8,8-8c3.533,0,6.689,2.37,7.677,5.764    l0.315,1.084l1.038-0.444C48.656,37.136,49.318,37,50,37c2.757,0,5,2.243,5,5c0,0.921-0.252,1.82-0.729,2.602l1.707,1.043    C56.646,44.549,57,43.288,57,42c2.206,0,4,1.794,4,4S59.206,50,57,50z"/>
		<path d="M19,29c5.514,0,10-4.486,10-10S24.514,9,19,9S9,13.486,9,19S13.486,29,19,29z M19,11c4.411,0,8,3.589,8,8s-3.589,8-8,8    s-8-3.589-8-8S14.589,11,19,11z"/>
		<path d="M21.425,53.038C20.228,50.029,17.299,48,14,48s-6.228,2.029-7.425,5.038C3.557,52.647,1,55.054,1,58c0,2.757,2.243,5,5,5    h16c2.757,0,5-2.243,5-5C27,55.054,24.448,52.642,21.425,53.038z M22,61H6c-1.654,0-3-1.346-3-3s1.346-3,3-3    c0.287,0,0.582,0.053,0.927,0.166l1.008,0.331l0.271-1.026C8.898,51.838,11.281,50,14,50s5.102,1.838,5.795,4.471l0.271,1.026    l1.008-0.331C21.418,55.053,21.713,55,22,55c1.654,0,3,1.346,3,3S23.654,61,22,61z"/>
	</g>
</g>
</svg>
