<?xml version="1.0" encoding="iso-8859-1"?>
<!-- Generator: Adobe Illustrator 22.1.0, SVG Export Plug-In . SVG Version: 6.00 Build 0)  -->
<svg xmlns="http://www.w3.org/2000/svg" xmlns:xlink="http://www.w3.org/1999/xlink" version="1.1" id="Layer_1_1_" x="0px" y="0px" viewBox="0 0 64 64" style="enable-background:new 0 0 64 64;" xml:space="preserve" width="512" height="512">
<g>
	<g>
		<path style="fill:#F0BC5E;" d="M35.956,17.539c-0.116-0.163-0.228-0.325-0.349-0.49c-0.438-0.271-0.948-0.518-1.441-0.757    c-0.526-0.255-1.387-0.671-1.624-0.93c0.067-0.354,0.626-1.18,0.968-1.685c0.852-1.257,1.731-2.557,1.08-3.682    c-0.656-1.136-2.235-1.021-3.764-0.91c-0.597,0.044-1.573,0.117-1.914,0.003c-0.112-0.338-0.041-1.315,0.003-1.914    c0.111-1.527,0.227-3.106-0.91-3.764c-1.124-0.65-2.424,0.229-3.682,1.08c-0.505,0.342-1.331,0.9-1.685,0.968    c-0.259-0.237-0.675-1.097-0.93-1.623C21.033,2.441,20.335,1,19,1s-2.032,1.441-2.707,2.835c-0.256,0.527-0.672,1.387-0.93,1.624    c-0.354-0.067-1.18-0.626-1.686-0.968c-1.257-0.851-2.554-1.732-3.682-1.08c-1.137,0.657-1.021,2.236-0.91,3.764    C9.13,7.772,9.201,8.751,9.089,9.089C8.751,9.2,7.773,9.13,7.175,9.086c-1.527-0.11-3.106-0.229-3.764,0.91    c-0.651,1.125,0.229,2.425,1.08,3.682c0.342,0.505,0.9,1.331,0.968,1.685c-0.237,0.259-1.097,0.675-1.623,0.93    C2.441,16.967,1,17.665,1,19s1.441,2.032,2.835,2.707c0.527,0.256,1.387,0.672,1.624,0.93c-0.067,0.354-0.626,1.18-0.968,1.686    c-0.852,1.257-1.731,2.557-1.08,3.682c0.656,1.136,2.234,1.021,3.764,0.91c0.598-0.043,1.574-0.116,1.914-0.003    c0.112,0.338,0.041,1.315-0.003,1.914c-0.111,1.527-0.227,3.106,0.91,3.764c1.125,0.65,2.424-0.229,3.682-1.08    c0.505-0.342,1.331-0.9,1.685-0.968c0.259,0.237,0.675,1.097,0.93,1.623C16.967,35.559,17.665,37,19,37s2.032-1.441,2.707-2.835    c0.255-0.525,0.67-1.383,0.929-1.622c0.107,0.023,0.368,0.115,0.912,0.455c0.156-0.005,0.301-0.013,0.454-0.019    C24.014,30.227,26.246,28,29,28c0.439,0,0.857,0.075,1.263,0.181l0-0.012C30.091,27.474,30,26.748,30,26    C30,22.1,32.486,18.788,35.956,17.539z M19,28c-4.971,0-9-4.029-9-9c0-4.971,4.029-9,9-9s9,4.029,9,9C28,23.971,23.971,28,19,28z"/>
	</g>
	<g>
		<path style="fill:#F0BC5E;" d="M32,50c-1.654,0-3-1.346-3-3c0-0.851,0.25-1.676,0.723-2.386L32,41.197l2.277,3.416    C34.75,45.324,35,46.149,35,47C35,48.654,33.654,50,32,50z"/>
	</g>
	<g>
		<path style="fill:#F0BC5E;" d="M49,55c-1.654,0-3-1.346-3-3c0-0.851,0.25-1.676,0.723-2.386L49,46.197l2.277,3.416    C51.75,50.324,52,51.149,52,52C52,53.654,50.654,55,49,55z"/>
	</g>
	<g>
		<path style="fill:#F0BC5E;" d="M17,56c-1.654,0-3-1.346-3-3c0-0.851,0.25-1.676,0.723-2.386L17,47.197l2.277,3.416    C19.75,51.324,20,52.149,20,53C20,54.654,18.654,56,17,56z"/>
	</g>
	<g>
		<path style="fill:#F0BC5E;" d="M60,62c-1.654,0-3-1.346-3-3c0-0.851,0.25-1.676,0.723-2.386L60,53.197l2.277,3.416    C62.75,57.324,63,58.149,63,59C63,60.654,61.654,62,60,62z"/>
	</g>
	<g>
		<path style="fill:#F0BC5E;" d="M38,63c-1.654,0-3-1.346-3-3c0-0.851,0.25-1.676,0.723-2.386L38,54.197l2.277,3.416    C40.75,58.324,41,59.149,41,60C41,61.654,39.654,63,38,63z"/>
	</g>
	<g>
		<path d="M57,27c-0.097,0-0.194,0.011-0.291,0.016C55.851,24.12,53.17,22,50,22c-0.594,0-1.179,0.074-1.747,0.221    C46.734,18.512,43.066,16,39,16c-5.514,0-10,4.486-10,10c0,0.336,0.027,0.67,0.061,1.003C29.04,27.003,29.021,27,29,27    c-3.309,0-6,2.691-6,6s2.691,6,6,6h28c3.309,0,6-2.691,6-6S60.309,27,57,27z M57,37H29c-2.206,0-4-1.794-4-4s1.794-4,4-4    s4,1.794,4,4h2c0-2.555-1.608-4.736-3.863-5.6C31.055,26.939,31,26.472,31,26c0-4.411,3.589-8,8-8c3.533,0,6.69,2.37,7.676,5.764    l0.315,1.084l1.039-0.444C48.656,24.136,49.319,24,50,24c2.757,0,5,2.243,5,5c0,0.921-0.252,1.82-0.729,2.602l1.707,1.043    C56.646,31.549,57,30.288,57,29c2.206,0,4,1.794,4,4S59.206,37,57,37z"/>
		<path d="M29,19c0-5.514-4.486-10-10-10S9,13.486,9,19s4.486,10,10,10S29,24.514,29,19z M19,27c-4.411,0-8-3.589-8-8s3.589-8,8-8    s8,3.589,8,8S23.411,27,19,27z"/>
		<rect x="4" y="38" width="2" height="2"/>
		<rect x="22" y="44" width="2" height="2"/>
		<rect x="57" y="45" width="2" height="2"/>
		<rect x="7" y="57" width="2" height="2"/>
	</g>
</g>
</svg>
