<?xml version="1.0" encoding="iso-8859-1"?>
<!-- Generator: Adobe Illustrator 22.1.0, SVG Export Plug-In . SVG Version: 6.00 Build 0)  -->
<svg xmlns="http://www.w3.org/2000/svg" xmlns:xlink="http://www.w3.org/1999/xlink" version="1.1" id="Layer_1_1_" x="0px" y="0px" viewBox="0 0 64 64" style="enable-background:new 0 0 64 64;" xml:space="preserve" width="512" height="512">
<g>
	<polygon points="33,30.414 36.707,26.707 35.293,25.293 33,27.586 33,25 31,25 31,27.586 28.707,25.293 27.293,26.707 31,30.414    31,32 28,32 28,34 31,34 31,37 33,37 33,34 36,34 36,32 33,32  "/>
	<g>
		<polygon points="14.732,38.93 19.796,37.573 21.17,38.366 19.67,40.964 21.402,41.964 22.902,39.366 25.5,40.866 26.5,39.134     23.902,37.634 25.402,35.036 23.67,34.036 22.17,36.634 20.796,35.841 19.439,30.777 17.508,31.295 18.347,34.427 16.107,33.134     15.107,34.866 17.347,36.159 14.215,36.998   "/>
		<polygon points="25.5,47.17 22.902,48.67 21.402,46.072 19.67,47.072 21.17,49.67 19.796,50.463 14.732,49.106 14.215,51.038     17.347,51.877 15.107,53.17 16.107,54.902 18.347,53.609 17.508,56.741 19.439,57.259 20.796,52.195 22.17,51.402 23.67,54     25.402,53 23.902,50.402 26.5,48.902   "/>
	</g>
	<polygon points="36.707,61.293 33,57.586 33,56 36,56 36,54 33,54 33,51 31,51 31,54 28,54 28,56 31,56 31,57.586 27.293,61.293    28.707,62.707 31,60.414 31,63 33,63 33,60.414 35.293,62.707  "/>
	<g>
		<polygon points="49.268,49.07 44.204,50.427 42.83,49.634 44.33,47.036 42.598,46.036 41.098,48.634 38.5,47.134 37.5,48.866     40.098,50.366 38.598,52.964 40.33,53.964 41.83,51.366 43.204,52.159 44.561,57.223 46.492,56.705 45.653,53.573 47.893,54.866     48.893,53.134 46.653,51.841 49.785,51.002   "/>
		<polygon points="38.5,40.866 41.098,39.366 42.598,41.964 44.33,40.964 42.83,38.366 44.204,37.573 49.268,38.93 49.785,36.998     46.653,36.159 48.893,34.866 47.893,33.134 45.653,34.427 46.492,31.295 44.561,30.777 43.204,35.841 41.83,36.634 40.33,34.036     38.598,35.036 40.098,37.634 37.5,39.134   "/>
	</g>
	<g>
		<g>
			<path style="fill:#F0BC5E;" d="M32,52.118l-7-3.5v-9.236l7-3.5l7,3.5v9.236L32,52.118z"/>
		</g>
	</g>
	<g>
		<g>
			<path style="fill:#F0BC5E;" d="M54,47c-1.654,0-3-1.346-3-3s1.346-3,3-3s3,1.346,3,3S55.654,47,54,47z M54,43     c-0.552,0-1,0.448-1,1s0.448,1,1,1s1-0.448,1-1S54.552,43,54,43z"/>
		</g>
	</g>
	<g>
		<g>
			<path style="fill:#F0BC5E;" d="M60,63c-1.654,0-3-1.346-3-3s1.346-3,3-3s3,1.346,3,3S61.654,63,60,63z M60,59     c-0.552,0-1,0.448-1,1s0.448,1,1,1s1-0.448,1-1S60.552,59,60,59z"/>
		</g>
	</g>
	<g>
		<g>
			<path style="fill:#F0BC5E;" d="M11,63c-1.654,0-3-1.346-3-3s1.346-3,3-3s3,1.346,3,3S12.654,63,11,63z M11,59     c-0.552,0-1,0.448-1,1s0.448,1,1,1s1-0.448,1-1S11.552,59,11,59z"/>
		</g>
	</g>
	<g>
		<g>
			<path style="fill:#F0BC5E;" d="M4,35c-1.654,0-3-1.346-3-3s1.346-3,3-3s3,1.346,3,3S5.654,35,4,35z M4,31c-0.552,0-1,0.448-1,1     s0.448,1,1,1s1-0.448,1-1S4.552,31,4,31z"/>
		</g>
	</g>
	<path d="M49,13c-0.067,0-0.132,0.013-0.199,0.015C47.877,8.449,43.834,5,39,5c-1.932,0-3.814,0.57-5.422,1.608   C31.688,3.266,28.106,1,24,1c-6.065,0-11,4.935-11,11c0,0.416,0.038,0.828,0.085,1.238C9.554,14.103,7,17.272,7,21   c0,4.411,3.589,8,8,8h10v-2H15c-3.309,0-6-2.691-6-6c0-2.77,1.885-5.115,4.492-5.79c0.267,0.875,0.63,1.721,1.11,2.508l1.707-1.041   C15.453,15.272,15,13.655,15,12c0-4.963,4.037-9,9-9s9,4.037,9,9h2c0-1.242-0.217-2.432-0.598-3.547C35.743,7.512,37.351,7,39,7   c4.411,0,8,3.589,8,8c0,0.931-0.158,1.844-0.472,2.713l1.883,0.678C48.802,17.303,49,16.162,49,15c3.309,0,6,2.691,6,6   s-2.691,6-6,6H38.958v2H49c4.411,0,8-3.589,8-8S53.411,13,49,13z"/>
	<g>
		<path d="M35,47h-6v-6h6V47z M31,45h2v-2h-2V45z"/>
	</g>
</g>
</svg>
