<?xml version="1.0" encoding="iso-8859-1"?>
<!-- Generator: Adobe Illustrator 22.1.0, SVG Export Plug-In . SVG Version: 6.00 Build 0)  -->
<svg xmlns="http://www.w3.org/2000/svg" xmlns:xlink="http://www.w3.org/1999/xlink" version="1.1" id="Layer_1_1_" x="0px" y="0px" viewBox="0 0 64 64" style="enable-background:new 0 0 64 64;" xml:space="preserve" width="512" height="512">
<g>
	<g>
		<g>
			<path style="fill:#F0BC5E;" d="M20,42h-6C6.832,42,1,36.168,1,29v-1h6c7.168,0,13,5.832,13,13V42z"/>
		</g>
	</g>
	<g>
		<g>
			<path style="fill:#F0BC5E;" d="M50,41h-6v-1c0-7.168,5.832-13,13-13h6v1C63,35.168,57.168,41,50,41z"/>
		</g>
	</g>
	<g>
		<g>
			<path style="fill:#F0BC5E;" d="M46,47h-6c-7.168,0-13-5.832-13-13v-1h6c7.168,0,13,5.832,13,13V47z"/>
		</g>
	</g>
	<g>
		<path d="M27,55c0-2.757-2.243-5-5-5c-0.705,0-1.379,0.157-2,0.431V27.949C25.598,27.442,30,22.728,30,17V4.277l-1.496,0.854    c-1.374,0.785-2.651,1.713-3.827,2.748c-0.483-0.882-1.078-1.694-1.799-2.415L19,1.586l-3.878,3.879    c-0.604,0.604-1.124,1.278-1.565,2.004c-0.112-0.068-0.219-0.142-0.333-0.207L8,4.277V17c0,5.728,4.402,10.442,10,10.949v11.087    l-9.412-6.845l-1.177,1.617L18,41.509v8.058C16.924,48.59,15.512,48,14,48c-3.309,0-6,2.691-6,6c0,0.376,0.038,0.746,0.106,1.109    C6.331,55.517,5,57.102,5,59c0,2.206,1.794,4,4,4h18c2.206,0,4-1.794,4-4S29.206,55,27,55z M28,7.808V17    c0,4.625-3.506,8.445-8,8.944v-7.006c0-0.235-0.006-0.472-0.019-0.707l0.125-0.331C21.642,13.803,24.414,10.274,28,7.808z     M16.536,6.879L19,4.414l2.464,2.465c0.714,0.714,1.28,1.537,1.705,2.443c-1.527,1.608-2.826,3.43-3.845,5.412    c-0.204-0.62-0.453-1.226-0.744-1.81c-0.826-1.653-1.977-3.095-3.373-4.268C15.581,8.014,16.008,7.407,16.536,6.879z M10,17V7.723    l2.231,1.275c1.969,1.126,3.546,2.792,4.56,4.82C17.582,15.4,18,17.171,18,18.938v7.006C13.506,25.445,10,21.625,10,17z M27,61H9    c-1.103,0-2-0.897-2-2s0.897-2,2-2s2,0.897,2,2h2c0-1.783-1.18-3.279-2.794-3.794C10.082,54.816,10,54.416,10,54    c0-2.206,1.794-4,4-4c1.765,0,3.338,1.197,3.826,2.911l0.559,1.959l1.208-1.641C20.169,52.448,21.046,52,22,52    c1.654,0,3,1.346,3,3c0,0.927-0.419,1.788-1.15,2.362l1.235,1.573c0.647-0.509,1.142-1.155,1.469-1.879    C26.7,57.023,26.848,57,27,57c1.103,0,2,0.897,2,2S28.103,61,27,61z"/>
		<path d="M55.894,55.109C55.962,54.746,56,54.376,56,54c0-3.309-2.691-6-6-6c-1.512,0-2.924,0.59-4,1.567v-9.058l10.588-7.701    l-1.177-1.617L46,38.036V27.949C51.598,27.442,56,22.728,56,17V4.277l-5.224,2.984c-0.114,0.065-0.221,0.139-0.333,0.207    c-0.441-0.726-0.961-1.399-1.565-2.004L45,1.586l-3.878,3.879c-0.721,0.721-1.316,1.533-1.799,2.415    c-1.176-1.035-2.453-1.963-3.827-2.748L34,4.277V17c0,5.728,4.402,10.442,10,10.949v16.087l-9.412-6.845l-1.177,1.617L44,46.509    v3.922C43.379,50.157,42.705,50,42,50c-2.757,0-5,2.243-5,5c-2.206,0-4,1.794-4,4s1.794,4,4,4h18c2.206,0,4-1.794,4-4    C59,57.102,57.669,55.517,55.894,55.109z M54,7.723V17c0,4.625-3.506,8.445-8,8.944v-7.006c0-1.768,0.418-3.538,1.209-5.12    c1.014-2.028,2.59-3.694,4.56-4.82L54,7.723z M42.536,6.879L45,4.414l2.464,2.465c0.528,0.528,0.955,1.135,1.329,1.777    c-1.396,1.174-2.547,2.616-3.373,4.268c-0.292,0.584-0.54,1.188-0.744,1.81c-1.019-1.982-2.317-3.804-3.845-5.412    C41.256,8.416,41.822,7.593,42.536,6.879z M36,17V7.808c3.586,2.467,6.358,5.995,7.895,10.092l0.125,0.332    C44.006,18.467,44,18.703,44,18.938v7.006C39.506,25.445,36,21.625,36,17z M55,61H37c-1.103,0-2-0.897-2-2s0.897-2,2-2    c0.152,0,0.3,0.023,0.446,0.056c0.327,0.724,0.822,1.371,1.469,1.879l1.235-1.573C39.419,56.788,39,55.927,39,55    c0-1.654,1.346-3,3-3c0.954,0,1.831,0.448,2.407,1.229l1.208,1.641l0.559-1.959C46.662,51.197,48.235,50,50,50    c2.206,0,4,1.794,4,4c0,0.416-0.082,0.816-0.206,1.206C52.18,55.721,51,57.217,51,59h2c0-1.103,0.897-2,2-2s2,0.897,2,2    S56.103,61,55,61z"/>
	</g>
</g>
</svg>
