<?xml version="1.0" encoding="iso-8859-1"?>
<!-- Generator: Adobe Illustrator 22.1.0, SVG Export Plug-In . SVG Version: 6.00 Build 0)  -->
<svg xmlns="http://www.w3.org/2000/svg" xmlns:xlink="http://www.w3.org/1999/xlink" version="1.1" id="Layer_1_1_" x="0px" y="0px" viewBox="0 0 64 64" style="enable-background:new 0 0 64 64;" xml:space="preserve" width="512" height="512">
<g>
	<g>
		<path style="fill:#F0BC5E;" d="M60.188,27.367C61.57,26.445,63,25.492,63,24c0-1.493-1.43-2.446-2.812-3.367    c-0.687-0.457-1.723-1.148-1.831-1.552c-0.119-0.447,0.427-1.555,0.825-2.364c0.719-1.46,1.462-2.971,0.738-4.221    c-0.732-1.267-2.427-1.376-4.066-1.481c-0.889-0.058-2.105-0.137-2.418-0.449s-0.392-1.53-0.449-2.419    c-0.105-1.639-0.215-3.334-1.481-4.066c-1.25-0.724-2.761,0.02-4.222,0.739c-0.81,0.398-1.91,0.938-2.363,0.824    c-0.404-0.108-1.096-1.146-1.553-1.831C42.445,2.43,41.492,1,40,1c-1.493,0-2.446,1.43-3.367,2.812    c-0.457,0.687-1.148,1.723-1.552,1.831c-0.45,0.115-1.555-0.427-2.364-0.825c-1.46-0.718-2.97-1.462-4.221-0.738    c-1.267,0.732-1.376,2.427-1.481,4.066c-0.058,0.889-0.137,2.105-0.449,2.418s-1.53,0.392-2.419,0.449    c-1.639,0.105-3.334,0.215-4.067,1.482c-0.644,1.115-0.119,2.442,0.469,3.665c0.103-0.003,0.203-0.015,0.306-0.015h0.438    c2.21,0,4.306,0.689,6.068,1.881l-0.011-0.031C29.597,13.268,34.417,10,40,10c7.732,0,14,6.268,14,14s-6.268,14-14,14    c-2.147,0-4.182-0.483-6-1.347l-0.051-0.143C33.696,38.475,32.035,40,30,40h-0.262c-0.333,1.28-0.969,2.438-1.835,3.387    c0.172,0.213,0.363,0.401,0.593,0.533c1.25,0.724,2.761-0.02,4.222-0.739c0.81-0.398,1.914-0.937,2.363-0.824    c0.404,0.108,1.096,1.146,1.553,1.831C37.555,45.57,38.508,47,40,47c1.493,0,2.446-1.43,3.367-2.812    c0.457-0.687,1.148-1.723,1.552-1.831c0.451-0.114,1.555,0.427,2.364,0.825c1.46,0.718,2.97,1.462,4.221,0.738    c1.267-0.732,1.376-2.427,1.481-4.066c0.058-0.889,0.137-2.105,0.449-2.418s1.53-0.392,2.419-0.449    c1.639-0.105,3.334-0.215,4.066-1.481c0.724-1.251-0.02-2.761-0.739-4.222c-0.397-0.809-0.943-1.917-0.824-2.363    C58.465,28.516,59.502,27.824,60.188,27.367z"/>
	</g>
	<path d="M30.493,40.95c1.84-0.184,3.393-1.345,4.097-2.977C36.312,38.642,38.123,39,40,39c8.271,0,15-6.729,15-15S48.271,9,40,9   c-5.393,0-10.401,2.949-13.048,7.597c-1.702-0.925-3.63-1.451-5.66-1.451h-0.438C14.318,15.146,9,20.464,9,27v9h0.028   c0.003,1.239,0.437,2.444,1.272,3.363c0.833,0.916,1.984,1.461,3.206,1.585c0.506,1.453,1.372,2.734,2.494,3.741v2.502   l-8.891,1.905c-3.014,0.646-5.226,3.143-5.505,6.211L0.905,63h42.19l-0.699-7.692c-0.279-3.068-2.491-5.564-5.505-6.211L28,47.191   v-2.502C29.121,43.682,29.987,42.402,30.493,40.95z M30.958,38.829C30.983,38.555,31,38.28,31,38v-4.816   c1.161,0.414,2,1.514,2,2.816C33,37.317,32.141,38.427,30.958,38.829z M40,11c7.168,0,13,5.832,13,13s-5.832,13-13,13   c-1.741,0-3.417-0.354-5-1.017v-9.675c0-2.181-1.305-4.125-3.289-4.962c-0.783-1.446-1.834-2.681-3.073-3.661   C30.917,13.599,35.288,11,40,11z M11.78,38.018c-0.576-0.633-0.848-1.455-0.766-2.315c0.108-1.131,0.91-2.079,1.986-2.487V38   c0,0.279,0.017,0.553,0.042,0.826C12.565,38.663,12.125,38.397,11.78,38.018z M15,38v-5h0.395c2.557,0,5.033-0.75,7.16-2.168   l-1.109-1.664C19.647,30.367,17.555,31,15.395,31h-1.223c-1.188,0-2.287,0.415-3.172,1.085V27c0-5.434,4.42-9.854,9.854-9.854   h0.438c3.757,0,7.134,2.087,8.813,5.447l0.186,0.371l0.393,0.131C32.069,23.557,33,24.848,33,26.308v5.717   C32.162,31.391,31.13,31,30,31v1h-1v6c0,3.859-3.14,7-7,7S15,41.859,15,38z M27.322,49.092l0.532,0.114l-2.246,5.989L23.414,53   L27.322,49.092z M16.678,49.092L20.586,53l-2.195,2.194l-2.246-5.989L16.678,49.092z M40.404,55.489L40.905,61H3.095l0.501-5.511   c0.199-2.192,1.779-3.976,3.932-4.438l6.64-1.422l3.441,9.176L22,54.414l4.391,4.392l3.441-9.176l6.64,1.422   C38.625,51.514,40.205,53.297,40.404,55.489z M26,47.586l-4,4l-4-4V46.05c1.207,0.602,2.562,0.95,4,0.95s2.793-0.347,4-0.95V47.586   z"/>
	<g>
		<path style="fill:#F0BC5E;" d="M26.049,36h-0.098C23.221,36,21,33.779,21,31.049c0-0.859,0.226-1.709,0.652-2.456L26,20.984    l4.348,7.608C30.774,29.34,31,30.189,31,31.049C31,33.779,28.779,36,26.049,36z"/>
	</g>
</g>
</svg>
