<?xml version="1.0" encoding="iso-8859-1"?>
<!-- Generator: Adobe Illustrator 22.1.0, SVG Export Plug-In . SVG Version: 6.00 Build 0)  -->
<svg xmlns="http://www.w3.org/2000/svg" xmlns:xlink="http://www.w3.org/1999/xlink" version="1.1" id="Layer_1_1_" x="0px" y="0px" viewBox="0 0 64 64" style="enable-background:new 0 0 64 64;" xml:space="preserve" width="512" height="512">
<g>
	<g>
		<path style="fill:#F0BC5E;" d="M51,25c-1.014,0-1.616-0.903-2.1-1.629c-0.141-0.211-0.362-0.543-0.504-0.687    c-0.201,0.051-0.579,0.237-0.818,0.354c-0.768,0.378-1.722,0.851-2.581,0.354c-0.864-0.5-0.934-1.572-0.989-2.434    c-0.017-0.26-0.043-0.672-0.098-0.87c-0.197-0.054-0.609-0.08-0.869-0.098c-0.861-0.056-1.935-0.125-2.435-0.99    c-0.495-0.855-0.023-1.812,0.354-2.58c0.117-0.238,0.304-0.616,0.354-0.817c-0.144-0.142-0.476-0.363-0.687-0.504    C39.903,14.616,39,14.014,39,13s0.903-1.616,1.629-2.1c0.211-0.141,0.543-0.362,0.687-0.504c-0.051-0.201-0.237-0.579-0.354-0.818    c-0.378-0.768-0.85-1.725-0.354-2.581c0.5-0.864,1.572-0.934,2.434-0.989c0.26-0.017,0.672-0.043,0.87-0.098    c0.054-0.197,0.08-0.609,0.098-0.869c0.056-0.861,0.125-1.935,0.99-2.435c0.855-0.494,1.812-0.024,2.58,0.354    c0.238,0.117,0.616,0.304,0.817,0.354C48.538,3.172,48.76,2.84,48.9,2.629C49.384,1.903,49.986,1,51,1s1.616,0.903,2.1,1.629    c0.141,0.211,0.362,0.543,0.504,0.687c0.201-0.051,0.579-0.237,0.818-0.354c0.768-0.379,1.723-0.851,2.581-0.354    c0.864,0.5,0.934,1.572,0.989,2.434c0.017,0.26,0.043,0.672,0.098,0.87c0.197,0.054,0.609,0.08,0.869,0.098    c0.861,0.056,1.935,0.125,2.435,0.99c0.495,0.855,0.023,1.812-0.354,2.58c-0.117,0.238-0.304,0.616-0.354,0.817    c0.144,0.142,0.476,0.363,0.687,0.504C62.097,11.384,63,11.986,63,13s-0.903,1.616-1.629,2.1    c-0.211,0.141-0.543,0.362-0.687,0.504c0.051,0.201,0.237,0.579,0.354,0.818c0.378,0.768,0.85,1.725,0.354,2.581    c-0.5,0.864-1.572,0.934-2.434,0.989c-0.26,0.017-0.672,0.043-0.87,0.098c-0.054,0.197-0.08,0.609-0.098,0.869    c-0.056,0.861-0.125,1.935-0.99,2.435c-0.855,0.494-1.812,0.023-2.58-0.354c-0.238-0.117-0.616-0.304-0.817-0.354    c-0.142,0.144-0.363,0.476-0.504,0.687C52.616,24.097,52.014,25,51,25z"/>
	</g>
	<g>
		<path style="fill:#F0BC5E;" d="M27.211,49L28,54h5.566c2.758,0,5.322,1.421,6.784,3.76L43,62H3l2.65-4.24    C7.112,55.421,9.676,54,12.434,54H18l0.789-5H1v14h62V49H27.211z"/>
	</g>
	<g>
		<path d="M51,19c3.309,0,6-2.691,6-6s-2.691-6-6-6s-6,2.691-6,6S47.691,19,51,19z M51,9c2.206,0,4,1.794,4,4s-1.794,4-4,4    s-4-1.794-4-4S48.794,9,51,9z"/>
		<path d="M63,51v-2h-3.42l-4.984-8.721C52.736,37.022,49.25,35,45.5,35c-2.468,0-4.86,0.9-6.732,2.466    c-0.387-1.756-1.259-3.371-2.561-4.673c-1.078-1.078-2.371-1.859-3.779-2.318C35.727,29.502,39.137,29,42.616,29h2.465    l-2.769-3.461C40.513,23.29,37.829,22,34.948,22c-0.609,0-1.207,0.069-1.794,0.182c1.546-1,3.259-1.755,5.088-2.212l1.048-0.262    l-0.342-1.024C38.214,16.48,36.16,15,33.838,15h-0.119c-3.296,0-6.397,1.452-8.509,3.984c-1.054,1.265-1.802,2.73-2.21,4.303    c-0.408-1.573-1.156-3.038-2.211-4.303C18.679,16.452,15.577,15,12.281,15h-0.119c-2.322,0-4.376,1.48-5.11,3.684L6.71,19.708    l1.048,0.262c1.829,0.457,3.542,1.212,5.088,2.212C12.259,22.069,11.661,22,11.052,22c-2.881,0-5.564,1.29-7.364,3.539L0.919,29    h2.465c3.479,0,6.889,0.502,10.189,1.475c-1.409,0.459-2.702,1.24-3.779,2.318C7.992,34.594,7,36.988,7,39.535v5.879l1.707-1.707    c3.158-3.157,6.872-5.562,11.037-7.16L17.778,49H16v2h1.462l-0.316,2h-4.712c-3.123,0-5.976,1.581-7.631,4.229L1.195,63h43.609    l-3.607-5.771c-0.05-0.081-0.112-0.151-0.164-0.229h0.754c0.098,0.087,0.235,0.229,0.344,0.34c0.647,0.661,1.626,1.66,3.03,1.66    c1.275,0,1.933-0.83,2.367-1.38c0.393-0.495,0.527-0.62,0.798-0.62c0.271,0,0.406,0.125,0.799,0.621    C49.56,58.17,50.217,59,51.491,59c1.275,0,1.933-0.83,2.367-1.379C54.251,57.125,54.386,57,54.657,57    c0.273,0,0.409,0.125,0.803,0.621C55.895,58.17,56.553,59,57.829,59c1.275,0,1.934-0.83,2.368-1.379    C60.591,57.125,60.727,57,61,57h2v-2h-2c-1.276,0-1.935,0.83-2.37,1.379C58.237,56.875,58.102,57,57.829,57    c-0.273,0-0.409-0.125-0.803-0.621C56.592,55.83,55.934,55,54.657,55c-1.275,0-1.933,0.83-2.367,1.379    C51.897,56.875,51.763,57,51.491,57c-0.271,0-0.405-0.125-0.798-0.62C50.259,55.83,49.602,55,48.326,55    c-1.274,0-1.932,0.83-2.366,1.379C45.567,56.875,45.433,57,45.161,57c-0.563,0-1.139-0.588-1.601-1.06    C43.087,55.457,42.64,55,42,55h-2.795c-1.573-1.272-3.54-2-5.639-2h-4.712l-0.316-2H63z M26.256,36.546    c3.371,1.294,6.442,3.124,9.167,5.448L31.42,49h-3.197L26.256,36.546z M20,30c0.552,0,1,0.448,1,1s-0.448,1-1,1s-1-0.448-1-1    S19.448,30,20,30z M26,30c0.552,0,1,0.448,1,1s-0.448,1-1,1s-1-0.448-1-1S25.448,30,26,30z M23,33c0.552,0,1,0.448,1,1    s-0.448,1-1,1s-1-0.448-1-1S22.448,33,23,33z M45.5,37c3.034,0,5.854,1.637,7.36,4.271L57.277,49H33.723l3.216-5.629    c0.117,0.113,0.238,0.22,0.354,0.336L39,45.414V40.06C40.599,38.144,43,37,45.5,37z M37,39.535v1.163    c-3.029-2.641-6.475-4.694-10.27-6.117l-0.76-0.285C25.98,34.197,26,34.101,26,34c1.302,0,2.402-0.839,2.816-2h0.649    c2.013,0,3.904,0.784,5.328,2.207C36.216,35.631,37,37.522,37,39.535z M40.75,26.789l0.198,0.247    c-4.225,0.182-8.343,1.065-12.282,2.618c-0.228-0.451-0.558-0.841-0.971-1.126l1.546-1.855C30.656,24.975,32.737,24,34.948,24    C37.218,24,39.333,25.017,40.75,26.789z M26.746,20.266C28.477,18.19,31.018,17,33.719,17h0.119c1.096,0,2.096,0.524,2.723,1.371    c-4.836,1.552-8.854,4.981-11.143,9.557l-0.075,0.15c-0.357,0.08-0.691,0.223-0.988,0.418l0.332-3.323    C24.868,23.361,25.58,21.665,26.746,20.266z M12.162,17h0.119c2.701,0,5.242,1.19,6.972,3.266c1.167,1.399,1.879,3.096,2.06,4.907    l0.332,3.323c-0.297-0.196-0.631-0.338-0.988-0.418l-0.075-0.149c-2.288-4.576-6.307-8.006-11.143-9.558    C10.066,17.524,11.066,17,12.162,17z M5.25,26.789C6.667,25.017,8.782,24,11.052,24c2.211,0,4.292,0.975,5.707,2.674l1.546,1.855    c-0.414,0.285-0.743,0.675-0.971,1.126c-3.939-1.553-8.057-2.436-12.282-2.618L5.25,26.789z M9,40.698v-1.163    c0-2.013,0.784-3.904,2.207-5.328C12.631,32.784,14.522,32,16.535,32h0.649c0.414,1.161,1.514,2,2.816,2    c0,0.101,0.02,0.197,0.03,0.296l-0.759,0.285C15.475,36.004,12.029,38.058,9,40.698z M39.502,58.29L41.195,61H4.805l1.693-2.71    C7.786,56.229,10.005,55,12.434,55h21.133C35.995,55,38.214,56.229,39.502,58.29z M19.17,53l2.572-16.286    C22.125,36.893,22.549,37,23,37c0.451,0,0.875-0.107,1.259-0.286L26.83,53H19.17z"/>
		<rect x="1" y="49" width="13" height="2"/>
	</g>
</g>
</svg>
