<?xml version="1.0" encoding="iso-8859-1"?>
<!-- Generator: Adobe Illustrator 22.1.0, SVG Export Plug-In . SVG Version: 6.00 Build 0)  -->
<svg xmlns="http://www.w3.org/2000/svg" xmlns:xlink="http://www.w3.org/1999/xlink" version="1.1" id="Layer_1_1_" x="0px" y="0px" viewBox="0 0 64 64" style="enable-background:new 0 0 64 64;" xml:space="preserve" width="512" height="512">
<g>
	<g>
		<path style="fill:#F0BC5E;" d="M16.835,21.707c0.527,0.256,1.387,0.672,1.624,0.93c-0.067,0.354-0.626,1.179-0.968,1.684    c-0.278,0.412-0.556,0.823-0.773,1.209l0.89,0.504C18.776,25.381,20.102,25,21.5,25c3.314,0,6.285,2.041,7.474,5.133v0    c0.828,2.151,1.839,4.221,3.019,6.187c1.182-1.968,2.204-4.033,3.032-6.187v0C36.215,27.041,39.186,25,42.5,25    c1.397,0,2.723,0.38,3.891,1.032l0.891-0.505c-0.218-0.384-0.494-0.794-0.771-1.204c-0.343-0.506-0.901-1.332-0.969-1.686    c0.237-0.259,1.097-0.675,1.623-0.93C48.559,21.033,50,20.335,50,19s-1.441-2.032-2.835-2.707    c-0.527-0.256-1.387-0.672-1.624-0.93c0.067-0.354,0.626-1.18,0.968-1.686c0.852-1.257,1.731-2.557,1.08-3.682    c-0.657-1.135-2.234-1.021-3.764-0.91c-0.596,0.044-1.573,0.117-1.914,0.003c-0.112-0.338-0.041-1.315,0.003-1.914    c0.111-1.527,0.227-3.106-0.91-3.764c-1.124-0.65-2.423,0.229-3.682,1.08c-0.505,0.342-1.331,0.9-1.685,0.968    c-0.259-0.237-0.675-1.097-0.93-1.623C34.033,2.441,33.335,1,32,1s-2.032,1.441-2.707,2.835c-0.256,0.527-0.672,1.387-0.93,1.624    c-0.354-0.067-1.18-0.626-1.686-0.968c-1.257-0.851-2.555-1.733-3.682-1.08c-1.137,0.657-1.021,2.236-0.91,3.764    c0.044,0.598,0.115,1.576,0.003,1.914C21.752,9.2,20.773,9.13,20.175,9.086c-1.526-0.111-3.106-0.229-3.764,0.91    c-0.651,1.125,0.229,2.425,1.08,3.682c0.342,0.505,0.9,1.331,0.968,1.685c-0.237,0.259-1.097,0.675-1.623,0.93    C15.441,16.967,14,17.665,14,19S15.441,21.032,16.835,21.707z"/>
	</g>
	<g>
		<path d="M61.414,45l-1.747-1.747c-3.854-3.854-6.802-8.39-8.759-13.479C49.579,26.32,46.2,24,42.5,24    c-0.687,0-1.356,0.105-2.01,0.257C41.441,22.727,42,20.93,42,19c0-5.514-4.486-10-10-10s-10,4.486-10,10    c0,1.93,0.559,3.727,1.51,5.257C22.856,24.105,22.187,24,21.5,24c-3.7,0-7.079,2.32-8.408,5.774    c-1.957,5.089-4.904,9.624-8.759,13.479L2.586,45H1v2h62v-2H61.414z M58.586,45H26.414l0.333-0.333    c3.408-3.408,6.132-7.327,8.14-11.667H35c1.654,0,3,1.346,3,3v1c0,1.654,1.346,3,3,3s3-1.346,3-3v-4.257    C44,32.333,44.333,32,44.743,32c0.32,0,0.604,0.204,0.706,0.509l1.091,3.275C46.981,37.109,48.218,38,49.615,38    c0.994,0,1.902-0.45,2.508-1.198c1.705,2.849,3.748,5.483,6.13,7.865L58.586,45z M29.908,29.774    c-0.153-0.396-0.339-0.773-0.543-1.138C30.206,28.866,31.087,29,32,29s1.794-0.134,2.635-0.364    c-0.204,0.365-0.39,0.742-0.543,1.138c-0.602,1.566-1.309,3.072-2.096,4.529C31.205,32.842,30.504,31.325,29.908,29.774z     M49.041,30.493c0.568,1.477,1.224,2.905,1.949,4.291l-0.265,0.531C50.514,35.737,50.089,36,49.615,36    c-0.535,0-1.008-0.341-1.178-0.849l-1.092-3.275C46.972,30.754,45.926,30,44.743,30C43.23,30,42,31.23,42,32.743V37    c0,0.552-0.448,1-1,1s-1-0.448-1-1v-1c0-2.511-1.867-4.575-4.281-4.927c0.078-0.194,0.165-0.384,0.24-0.58    C36.992,27.806,39.621,26,42.5,26S48.008,27.806,49.041,30.493z M32,11c4.411,0,8,3.589,8,8s-3.589,8-8,8s-8-3.589-8-8    S27.589,11,32,11z M14.959,30.493C15.992,27.806,18.621,26,21.5,26s5.508,1.806,6.541,4.493c0.075,0.195,0.16,0.386,0.238,0.58    C25.865,31.426,24,33.49,24,36v1c0,0.552-0.448,1-1,1s-1-0.448-1-1v-4.257C22,31.23,20.77,30,19.257,30    c-1.183,0-2.229,0.754-2.603,1.876l-1.093,3.275C15.393,35.659,14.92,36,14.385,36c-0.474,0-0.898-0.263-1.109-0.686l-0.265-0.53    C13.735,33.398,14.391,31.97,14.959,30.493z M5.747,44.667c2.382-2.382,4.424-5.017,6.13-7.865C12.483,37.551,13.391,38,14.385,38    c1.397,0,2.634-0.891,3.074-2.216l1.092-3.275C18.652,32.204,18.937,32,19.257,32C19.667,32,20,32.333,20,32.743V37    c0,1.654,1.346,3,3,3s3-1.346,3-3v-1c0-1.654,1.346-3,3-3h0.114c0.524,1.129,1.098,2.234,1.72,3.307    c-1.555,2.504-3.386,4.831-5.501,6.946L23.586,45H5.414L5.747,44.667z"/>
		<path d="M57.827,61c-0.952,0-1.381-0.332-1.976-0.791C55.155,59.67,54.288,59,52.653,59s-2.501,0.671-3.197,1.209    C48.863,60.668,48.435,61,47.484,61c-0.949,0-1.378-0.332-1.971-0.791C44.817,59.671,43.952,59,42.318,59s-2.5,0.671-3.196,1.209    C38.529,60.668,38.101,61,37.15,61c-0.949,0-1.378-0.332-1.971-0.791C34.483,59.671,33.618,59,31.984,59s-2.5,0.671-3.196,1.209    C28.195,60.668,27.767,61,26.817,61s-1.378-0.332-1.971-0.791C24.15,59.671,23.285,59,21.651,59s-2.5,0.671-3.195,1.21    c-0.593,0.458-1.021,0.79-1.97,0.79c-0.948,0-1.375-0.331-1.968-0.79C13.823,59.671,12.958,59,11.325,59    c-1.634,0-2.5,0.671-3.195,1.21C7.537,60.668,7.109,61,6.16,61c-0.948,0-1.376-0.331-1.968-0.79C3.497,59.671,2.632,59,1,59v2    c0.948,0,1.376,0.331,1.968,0.79C3.663,62.329,4.528,63,6.16,63c1.633,0,2.499-0.671,3.194-1.209    C9.947,61.332,10.376,61,11.325,61c0.948,0,1.376,0.332,1.969,0.791C13.989,62.329,14.854,63,16.486,63    c1.633,0,2.499-0.671,3.194-1.209C20.273,61.332,20.702,61,21.651,61s1.378,0.332,1.971,0.791C24.318,62.329,25.184,63,26.817,63    c1.633,0,2.499-0.671,3.195-1.209C30.605,61.332,31.034,61,31.984,61c0.949,0,1.378,0.332,1.971,0.791    C34.651,62.329,35.517,63,37.15,63s2.5-0.671,3.196-1.209C40.939,61.332,41.368,61,42.318,61c0.949,0,1.378,0.332,1.971,0.791    C44.985,62.329,45.851,63,47.484,63s2.5-0.67,3.196-1.209C51.273,61.332,51.702,61,52.653,61c0.952,0,1.381,0.332,1.976,0.791    C55.325,62.33,56.192,63,57.827,63s2.501-0.67,3.197-1.209C61.619,61.332,62.048,61,63,61v-2c-1.635,0-2.502,0.67-3.198,1.209    C59.207,60.668,58.778,61,57.827,61z"/>
		<path d="M57.797,53c-0.961,0-1.394-0.332-1.992-0.793C55.105,51.669,54.234,51,52.593,51c-1.64,0-2.51,0.67-3.209,1.207    C48.785,52.668,48.354,53,47.394,53c-0.958,0-1.39-0.332-1.987-0.792C44.707,51.67,43.838,51,42.198,51    c-1.641,0-2.511,0.67-3.21,1.208C38.391,52.668,37.959,53,37,53v2c1.64,0,2.51-0.669,3.208-1.207    c0.599-0.461,1.03-0.793,1.99-0.793c0.958,0,1.391,0.332,1.987,0.792C44.885,54.33,45.754,55,47.394,55s2.51-0.67,3.209-1.207    c0.599-0.461,1.03-0.793,1.99-0.793c0.962,0,1.395,0.333,1.993,0.793C55.285,54.331,56.156,55,57.797,55s2.512-0.669,3.211-1.207    C61.606,53.333,62.039,53,63,53v-2c-1.641,0-2.512,0.669-3.211,1.207C59.19,52.667,58.758,53,57.797,53z"/>
		<path d="M6.196,55c1.641,0,2.511-0.669,3.21-1.207C10.005,53.332,10.438,53,11.397,53s1.392,0.332,1.99,0.793    C14.086,54.331,14.956,55,16.596,55c1.641,0,2.511-0.669,3.21-1.207C20.404,53.332,20.837,53,21.797,53    c0.961,0,1.394,0.333,1.992,0.793C24.488,54.331,25.359,55,27,55v-2c-0.961,0-1.394-0.333-1.992-0.793    C24.309,51.669,23.438,51,21.797,51s-2.511,0.669-3.21,1.207C17.988,52.668,17.556,53,16.596,53c-0.959,0-1.391-0.332-1.988-0.792    C13.908,51.67,13.038,51,11.397,51s-2.511,0.669-3.21,1.207C7.589,52.668,7.156,53,6.196,53c-0.958,0-1.39-0.332-1.987-0.792    C3.51,51.67,2.64,51,1,51v2c0.959,0,1.391,0.332,1.988,0.793C3.688,54.33,4.558,55,6.196,55z"/>
	</g>
</g>
</svg>
