<?xml version="1.0" encoding="iso-8859-1"?>
<!-- Generator: Adobe Illustrator 22.1.0, SVG Export Plug-In . SVG Version: 6.00 Build 0)  -->
<svg xmlns="http://www.w3.org/2000/svg" xmlns:xlink="http://www.w3.org/1999/xlink" version="1.1" id="Layer_1_1_" x="0px" y="0px" viewBox="0 0 64 64" style="enable-background:new 0 0 64 64;" xml:space="preserve" width="512" height="512">
<g>
	<g>
		<circle style="fill:#F0BC5E;" cx="22" cy="49" r="4"/>
	</g>
	<g>
		<circle style="fill:#F0BC5E;" cx="8" cy="58" r="4"/>
	</g>
	<g>
		<circle style="fill:#F0BC5E;" cx="6" cy="36" r="4"/>
	</g>
	<g>
		<path d="M56.94,29.071C56.975,28.715,57,28.358,57,28c0-6.065-4.935-11-11-11c-0.87,0-1.716,0.122-2.539,0.317    c-0.806-1.945-2.443-3.424-4.468-4.022C38.998,13.195,39,13.098,39,13c0-4.411-3.589-8-8-8c-1.383,0-2.685,0.353-3.821,0.973    C25.155,2.89,21.738,1,18,1C11.935,1,7,5.935,7,12c0,0.358,0.025,0.715,0.06,1.071C3.644,13.533,1,16.46,1,20c0,3.859,3.141,7,7,7    h17.263C25.097,27.641,25,28.308,25,29c0,0.098,0.002,0.196,0.007,0.297C22.095,30.167,20,32.897,20,36c0,3.859,3.141,7,7,7h29    c3.859,0,7-3.141,7-7C63,32.46,60.356,29.533,56.94,29.071z M8,25c-2.757,0-5-2.243-5-5s2.243-5,5-5s5,2.243,5,5h2    c0-3.495-2.578-6.392-5.93-6.909C9.026,12.729,9,12.365,9,12c0-4.963,4.037-9,9-9c3.091,0,5.912,1.58,7.561,4.151    C23.99,8.612,23,10.69,23,13h2c0-3.309,2.691-6,6-6s6,2.691,6,6c0,0.276-0.025,0.571-0.079,0.925l-0.151,0.989l0.989,0.15    c1.694,0.259,3.103,1.356,3.791,2.877c-1.913,0.845-3.552,2.239-4.729,4.032C35.685,21.353,34.383,21,33,21    c-2.953,0-5.532,1.613-6.918,4H8z M56,41H27c-2.757,0-5-2.243-5-5c0-2.445,1.823-4.567,4.241-4.936l0.989-0.15l-0.151-0.989    C27.025,29.57,27,29.276,27,29c0-3.309,2.691-6,6-6s6,2.691,6,6h2c0-2.31-0.99-4.388-2.561-5.849C40.088,20.58,42.909,19,46,19    c4.963,0,9,4.037,9,9c0,0.365-0.026,0.729-0.07,1.091C51.578,29.608,49,32.505,49,36h2c0-2.757,2.243-5,5-5s5,2.243,5,5    S58.757,41,56,41z"/>
		<path d="M3.172,40.242L5,38.414V41h2v-2.586l1.828,1.828l1.414-1.414L8.414,37H11v-2H8.414l1.828-1.828l-1.414-1.414L7,33.586V31    H5v2.586l-1.828-1.828l-1.414,1.414L3.586,35H1v2h2.586l-1.828,1.828L3.172,40.242z M4,36.828v-1.656L5.172,34h1.656L8,35.172    v1.656L6.828,38H5.172L4,36.828z"/>
		<path d="M26.242,46.172l-1.414-1.414L23,46.586V44h-2v2.586l-1.828-1.828l-1.414,1.414L19.586,48H17v2h2.586l-1.828,1.828    l1.414,1.414L21,51.414V54h2v-2.586l1.828,1.828l1.414-1.414L24.414,50H27v-2h-2.586L26.242,46.172z M24,48.172v1.656L22.828,51    h-1.656L20,49.828v-1.656L21.172,47h1.656L24,48.172z"/>
		<path d="M12.242,55.172l-1.414-1.414L9,55.586V53H7v2.586l-1.828-1.828l-1.414,1.414L5.586,57H3v2h2.586l-1.828,1.828l1.414,1.414    L7,60.414V63h2v-2.586l1.828,1.828l1.414-1.414L10.414,59H13v-2h-2.586L12.242,55.172z M10,57.172v1.656L8.828,60H7.172L6,58.828    v-1.656L7.172,56h1.656L10,57.172z"/>
	</g>
	<g>
		<g>
			<path style="fill:#F0BC5E;" d="M60,55c-1.654,0-3-1.346-3-3c0-0.851,0.25-1.676,0.723-2.386L60,46.197l2.277,3.416     C62.75,50.324,63,51.149,63,52C63,53.654,61.654,55,60,55z"/>
		</g>
	</g>
	<g>
		<g>
			<path style="fill:#F0BC5E;" d="M52,63c-1.654,0-3-1.346-3-3c0-0.851,0.25-1.676,0.723-2.386L52,54.197l2.277,3.416     C54.75,58.324,55,59.149,55,60C55,61.654,53.654,63,52,63z"/>
		</g>
	</g>
	<g>
		<g>
			<path style="fill:#F0BC5E;" d="M44,53c-1.654,0-3-1.346-3-3c0-0.851,0.25-1.676,0.723-2.386L44,44.197l2.277,3.416     C46.75,48.324,47,49.149,47,50C47,51.654,45.654,53,44,53z"/>
		</g>
	</g>
	<g>
		<g>
			<path style="fill:#F0BC5E;" d="M34,63c-1.654,0-3-1.346-3-3c0-0.851,0.25-1.676,0.723-2.386L34,54.197l2.277,3.416     C36.75,58.324,37,59.149,37,60C37,61.654,35.654,63,34,63z"/>
		</g>
	</g>
</g>
</svg>
