<svg id="Layer_3" height="512" viewBox="0 0 64 64" width="512" xmlns="http://www.w3.org/2000/svg" data-name="Layer 3"><path d="m62 62-1.031-1.547a10 10 0 0 0 -8.321-4.453h-5.032a7.889 7.889 0 0 1 -3.1-.636 9.1 9.1 0 0 1 -5.516-8.364v-.237a12.069 12.069 0 0 1 -7 2.237 12.069 12.069 0 0 1 -7-2.237v.237a9.1 9.1 0 0 1 -5.515 8.364 7.889 7.889 0 0 1 -3.1.636h-5.033a10 10 0 0 0 -8.321 4.453l-1.031 1.547z" fill="#686868"/><path d="m42.131 53.869a14.1 14.1 0 0 1 -9.973 4.131h-.316a14.1 14.1 0 0 1 -9.973-4.131 9.1 9.1 0 0 0 3.131-6.869v-.237a12.069 12.069 0 0 0 7 2.237 12.069 12.069 0 0 0 7-2.237v.237a9.1 9.1 0 0 0 3.131 6.869z" fill="#f2b9a1"/><path d="m47 29.874v6.226a7 7 0 0 1 -2.05 4.949l-4.414 4.414a12.073 12.073 0 0 1 -8.536 3.537 12.073 12.073 0 0 1 -8.536-3.536l-4.414-4.414a7 7 0 0 1 -2.05-4.95v-6.226a4.024 4.024 0 0 0 1 .126h2v2.667a3.333 3.333 0 0 0 3.333 3.333 3.334 3.334 0 0 0 2.667-1.333 6.666 6.666 0 0 1 5.333-2.667h1.334a6.666 6.666 0 0 1 5.333 2.667 3.334 3.334 0 0 0 2.667 1.333 3.333 3.333 0 0 0 3.333-3.333v-2.667h2a4.024 4.024 0 0 0 1-.126z" fill="#976947"/><path d="m46.965 22.117 1.291-3.885a14.493 14.493 0 0 0 .744-4.585 14.5 14.5 0 0 0 -2.7-8.428l-2.3-3.219-3 3-3-3-3 3-3-3-3 3-3-3-3 3-3-3-2.3 3.219a14.5 14.5 0 0 0 -2.7 8.428 14.493 14.493 0 0 0 .744 4.585l1.281 3.885a3.969 3.969 0 0 1 .975-.117h2v-1.715a12.617 12.617 0 0 1 .8-4.425 9.032 9.032 0 0 1 8.459-5.86 9.033 9.033 0 0 1 6.386 2.645l1.234 1.234a7.242 7.242 0 0 0 5.121 2.121 2 2 0 0 1 2 2v4h2a4.035 4.035 0 0 1 .965.117z" fill="#c18e59"/><path d="m38 34.667a3.334 3.334 0 0 0 2.667 1.333 3.333 3.333 0 0 0 3.333-3.333v-14.667a2 2 0 0 0 -2-2 7.242 7.242 0 0 1 -5.121-2.121l-1.234-1.234a9.033 9.033 0 0 0 -6.386-2.645 9.032 9.032 0 0 0 -8.459 5.86 12.617 12.617 0 0 0 -.8 4.425v12.382a3.333 3.333 0 0 0 3.333 3.333 3.334 3.334 0 0 0 2.667-1.333 6.666 6.666 0 0 1 5.333-2.667h1.334a6.666 6.666 0 0 1 5.333 2.667z" fill="#fbe1ca"/><path d="m20 22h-2a4 4 0 0 0 -4 4 4 4 0 0 0 4 4h2" fill="#f2b9a1"/><path d="m44 22h2a4 4 0 0 1 4 4 4 4 0 0 1 -4 4h-2" fill="#f2b9a1"/><path d="m32.172 40h-.344a7.772 7.772 0 0 1 -5.535-2.293l1.414-1.414a5.789 5.789 0 0 0 4.121 1.707h.344a5.789 5.789 0 0 0 4.121-1.707l1.414 1.414a7.772 7.772 0 0 1 -5.535 2.293z" fill="#ffd5b6"/></svg>